<svg xmlns="http://www.w3.org/2000/svg" xmlns:xlink="http://www.w3.org/1999/xlink" width="793" zoomAndPan="magnify" viewBox="0 0 594.95996 842.24997" height="1122" preserveAspectRatio="xMidYMid meet" version="1.0"><defs><clipPath id="id1"><path d="M 0.246094 0 L 594.675781 0 L 594.675781 841 L 0.246094 841 Z M 0.246094 0 " clip-rule="nonzero"/></clipPath><clipPath id="id2"><path d="M 0.246094 0 L 594.675781 0 L 594.675781 840.792969 L 0.246094 840.792969 Z M 0.246094 0 " clip-rule="nonzero"/></clipPath><clipPath id="id3"><path d="M 1 0 L 587.976562 0 L 587.976562 832.558594 L 1 832.558594 Z M 1 0 " clip-rule="nonzero"/></clipPath></defs><g clip-path="url(#id1)"><path fill="#ffffff" d="M 0.246094 0 L 594.714844 0 L 594.714844 840.792969 L 0.246094 840.792969 Z M 0.246094 0 " fill-opacity="1" fill-rule="nonzero"/></g><g clip-path="url(#id2)"><path fill="#ffffff" d="M 0.246094 0 L 594.714844 0 L 594.714844 840.792969 L 0.246094 840.792969 Z M 0.246094 0 " fill-opacity="1" fill-rule="nonzero"/><path fill="#ffffff" d="M 0.246094 0 L 594.714844 0 L 594.714844 840.792969 L 0.246094 840.792969 Z M 0.246094 0 " fill-opacity="1" fill-rule="nonzero"/></g><g clip-path="url(#id3)"><path fill="#000000" d="M 24.824219 12.585938 C 18.902344 12.585938 14.09375 17.40625 14.09375 23.324219 L 14.09375 808.671875 C 14.09375 814.59375 18.898438 819.410156 24.824219 819.410156 L 563.929688 819.40625 C 569.835938 819.40625 574.65625 814.59375 574.65625 808.675781 L 574.65625 23.320312 C 574.65625 17.402344 569.835938 12.589844 563.925781 12.589844 Z M 563.929688 832.21875 L 24.824219 832.21875 C 11.84375 832.21875 1.277344 821.660156 1.277344 808.679688 L 1.28125 23.324219 C 1.28125 10.34375 11.839844 -0.214844 24.824219 -0.214844 L 563.929688 -0.214844 C 576.910156 -0.214844 587.46875 10.347656 587.46875 23.324219 L 587.472656 808.675781 C 587.472656 821.65625 576.910156 832.21875 563.929688 832.21875 Z M 563.929688 832.21875 " fill-opacity="1" fill-rule="evenodd"/></g><path fill="#000000" d="M 151.988281 87.097656 C 137.804688 87.097656 126.257812 98.628906 126.257812 112.800781 C 126.257812 126.972656 137.804688 138.5 151.984375 138.5 C 166.152344 138.496094 177.699219 126.972656 177.699219 112.800781 C 177.703125 98.625 166.152344 87.101562 151.988281 87.097656 Z M 151.988281 151.304688 C 130.730469 151.304688 113.441406 134.03125 113.441406 112.800781 C 113.441406 91.566406 130.726562 74.292969 151.984375 74.292969 C 173.230469 74.292969 190.511719 91.566406 190.511719 112.800781 C 190.515625 134.03125 173.226562 151.304688 151.988281 151.304688 Z M 151.988281 151.304688 " fill-opacity="1" fill-rule="evenodd"/><path fill="#000000" d="M 97.074219 223.316406 L 206.898438 223.316406 L 206.898438 197.625 C 206.898438 183.453125 195.351562 171.929688 181.1875 171.929688 L 122.773438 171.929688 C 108.601562 171.929688 97.074219 183.457031 97.074219 197.625 Z M 213.308594 236.121094 L 90.664062 236.121094 C 87.113281 236.121094 84.257812 233.257812 84.257812 229.722656 L 84.261719 197.625 C 84.261719 176.390625 101.527344 159.125 122.769531 159.125 L 181.1875 159.125 C 202.429688 159.125 219.714844 176.394531 219.714844 197.625 L 219.714844 229.71875 C 219.714844 233.253906 216.84375 236.125 213.308594 236.121094 Z M 213.308594 236.121094 " fill-opacity="1" fill-rule="evenodd"/><path fill="#000000" d="M 502.539062 87.101562 L 254.453125 87.101562 C 250.917969 87.101562 248.046875 84.234375 248.046875 80.699219 C 248.046875 77.160156 250.914062 74.296875 254.453125 74.296875 L 502.539062 74.292969 C 506.074219 74.292969 508.945312 77.160156 508.945312 80.699219 C 508.949219 84.234375 506.074219 87.101562 502.539062 87.101562 Z M 502.539062 87.101562 " fill-opacity="1" fill-rule="evenodd"/><path fill="#000000" d="M 502.539062 161.609375 L 254.453125 161.609375 C 250.917969 161.609375 248.046875 158.746094 248.046875 155.210938 C 248.046875 151.671875 250.914062 148.808594 254.453125 148.808594 L 502.539062 148.804688 C 506.074219 148.804688 508.945312 151.675781 508.945312 155.210938 C 508.949219 158.746094 506.074219 161.613281 502.539062 161.609375 Z M 502.539062 161.609375 " fill-opacity="1" fill-rule="evenodd"/><path fill="#000000" d="M 502.539062 236.121094 L 254.453125 236.121094 C 250.917969 236.121094 248.046875 233.257812 248.046875 229.722656 C 248.046875 226.183594 250.914062 223.316406 254.453125 223.316406 L 502.539062 223.316406 C 506.074219 223.316406 508.945312 226.183594 508.945312 229.722656 C 508.949219 233.253906 506.074219 236.125 502.539062 236.121094 Z M 502.539062 236.121094 " fill-opacity="1" fill-rule="evenodd"/><path fill="#000000" d="M 502.539062 310.636719 L 86.210938 310.636719 C 82.675781 310.636719 79.800781 307.769531 79.800781 304.234375 C 79.800781 300.695312 82.671875 297.828125 86.207031 297.828125 L 502.539062 297.828125 C 506.074219 297.828125 508.945312 300.695312 508.945312 304.234375 C 508.949219 307.769531 506.074219 310.636719 502.539062 310.636719 Z M 502.539062 310.636719 " fill-opacity="1" fill-rule="evenodd"/><path fill="#000000" d="M 502.539062 385.144531 L 86.210938 385.144531 C 82.675781 385.144531 79.800781 382.28125 79.800781 378.746094 C 79.800781 375.207031 82.671875 372.339844 86.207031 372.339844 L 502.539062 372.339844 C 506.074219 372.339844 508.945312 375.207031 508.945312 378.746094 C 508.949219 382.277344 506.074219 385.148438 502.539062 385.144531 Z M 502.539062 385.144531 " fill-opacity="1" fill-rule="evenodd"/><path fill="#000000" d="M 502.539062 459.65625 L 86.210938 459.65625 C 82.675781 459.65625 79.800781 456.792969 79.800781 453.253906 C 79.800781 449.714844 82.671875 446.851562 86.207031 446.851562 L 502.539062 446.851562 C 506.074219 446.851562 508.945312 449.71875 508.945312 453.253906 C 508.949219 456.789062 506.074219 459.65625 502.539062 459.65625 Z M 502.539062 459.65625 " fill-opacity="1" fill-rule="evenodd"/><path fill="#000000" d="M 502.539062 534.167969 L 86.210938 534.167969 C 82.675781 534.167969 79.800781 531.304688 79.800781 527.765625 C 79.800781 524.230469 82.671875 521.363281 86.207031 521.363281 L 502.539062 521.359375 C 506.074219 521.359375 508.945312 524.234375 508.945312 527.765625 C 508.949219 531.304688 506.074219 534.171875 502.539062 534.167969 Z M 502.539062 534.167969 " fill-opacity="1" fill-rule="evenodd"/><path fill="#000000" d="M 502.539062 608.679688 L 86.210938 608.679688 C 82.675781 608.679688 79.800781 605.816406 79.800781 602.28125 C 79.800781 598.742188 82.671875 595.878906 86.207031 595.878906 L 502.539062 595.875 C 506.074219 595.875 508.945312 598.742188 508.945312 602.28125 C 508.949219 605.816406 506.074219 608.683594 502.539062 608.679688 Z M 502.539062 608.679688 " fill-opacity="1" fill-rule="evenodd"/><path fill="#000000" d="M 502.539062 683.191406 L 86.210938 683.191406 C 82.675781 683.191406 79.800781 680.324219 79.800781 676.789062 C 79.800781 673.25 82.671875 670.386719 86.207031 670.386719 L 502.539062 670.382812 C 506.074219 670.382812 508.945312 673.253906 508.945312 676.789062 C 508.949219 680.320312 506.074219 683.191406 502.539062 683.191406 Z M 502.539062 683.191406 " fill-opacity="1" fill-rule="evenodd"/><path fill="#000000" d="M 502.539062 757.703125 L 86.210938 757.703125 C 82.675781 757.703125 79.800781 754.839844 79.800781 751.300781 C 79.800781 747.765625 82.671875 744.898438 86.207031 744.898438 L 502.539062 744.894531 C 506.074219 744.894531 508.945312 747.765625 508.945312 751.300781 C 508.949219 754.839844 506.074219 757.703125 502.539062 757.703125 Z M 502.539062 757.703125 " fill-opacity="1" fill-rule="evenodd"/><path fill="#fcc09c" d="M 151.984375 138.5 C 166.152344 138.496094 177.699219 126.972656 177.699219 112.800781 C 177.703125 98.625 166.152344 87.101562 151.988281 87.097656 C 137.804688 87.097656 126.257812 98.628906 126.257812 112.800781 C 126.257812 126.972656 137.804688 138.5 151.984375 138.5 Z M 151.984375 138.5 " fill-opacity="1" fill-rule="evenodd"/><path fill="#fc6286" d="M 181.1875 171.929688 L 122.773438 171.929688 C 108.601562 171.929688 97.074219 183.457031 97.074219 197.625 L 97.074219 223.316406 L 206.898438 223.316406 L 206.898438 197.625 C 206.898438 183.453125 195.351562 171.929688 181.1875 171.929688 Z M 181.1875 171.929688 " fill-opacity="1" fill-rule="evenodd"/><path fill="#e0e0e0" d="M 151.984375 74.292969 C 173.230469 74.292969 190.511719 91.566406 190.511719 112.800781 C 190.515625 134.03125 173.226562 151.304688 151.988281 151.304688 C 130.730469 151.304688 113.441406 134.03125 113.441406 112.800781 C 113.441406 91.566406 130.726562 74.292969 151.984375 74.292969 Z M 122.769531 159.125 L 181.1875 159.125 C 202.429688 159.125 219.714844 176.394531 219.714844 197.625 L 219.714844 229.71875 C 219.714844 233.253906 216.84375 236.125 213.308594 236.121094 L 90.664062 236.121094 C 87.113281 236.121094 84.257812 233.257812 84.257812 229.722656 L 84.261719 197.625 C 84.261719 176.390625 101.527344 159.125 122.769531 159.125 Z M 24.824219 12.585938 C 18.902344 12.585938 14.09375 17.40625 14.09375 23.324219 L 14.09375 808.671875 C 14.09375 814.59375 18.898438 819.410156 24.824219 819.410156 L 563.929688 819.40625 C 569.835938 819.40625 574.65625 814.59375 574.65625 808.675781 L 574.65625 23.320312 C 574.65625 17.402344 569.835938 12.589844 563.925781 12.589844 Z M 86.210938 297.828125 L 502.539062 297.828125 C 506.078125 297.828125 508.949219 300.695312 508.949219 304.234375 C 508.949219 307.769531 506.078125 310.636719 502.539062 310.636719 L 86.210938 310.636719 C 82.675781 310.636719 79.800781 307.769531 79.800781 304.234375 C 79.804688 300.695312 82.671875 297.828125 86.210938 297.828125 Z M 86.210938 372.339844 L 502.539062 372.339844 C 506.078125 372.339844 508.949219 375.207031 508.949219 378.746094 C 508.949219 382.277344 506.078125 385.148438 502.539062 385.144531 L 86.210938 385.144531 C 82.675781 385.144531 79.800781 382.28125 79.800781 378.746094 C 79.804688 375.207031 82.671875 372.339844 86.210938 372.339844 Z M 86.210938 446.851562 L 502.539062 446.851562 C 506.078125 446.851562 508.949219 449.71875 508.949219 453.253906 C 508.949219 456.789062 506.078125 459.65625 502.539062 459.65625 L 86.210938 459.65625 C 82.675781 459.65625 79.800781 456.792969 79.800781 453.253906 C 79.804688 449.714844 82.671875 446.851562 86.210938 446.851562 Z M 86.210938 521.363281 L 502.539062 521.359375 C 506.078125 521.359375 508.949219 524.230469 508.949219 527.765625 C 508.949219 531.300781 506.078125 534.167969 502.539062 534.167969 L 86.210938 534.167969 C 82.675781 534.167969 79.800781 531.304688 79.800781 527.765625 C 79.804688 524.230469 82.671875 521.363281 86.210938 521.363281 Z M 86.210938 595.875 L 502.539062 595.875 C 506.078125 595.875 508.949219 598.742188 508.949219 602.277344 C 508.949219 605.8125 506.078125 608.679688 502.539062 608.679688 L 86.210938 608.679688 C 82.675781 608.679688 79.800781 605.8125 79.800781 602.277344 C 79.804688 598.742188 82.671875 595.875 86.210938 595.875 Z M 86.210938 670.386719 L 502.539062 670.382812 C 506.078125 670.382812 508.949219 673.253906 508.949219 676.789062 C 508.949219 680.324219 506.078125 683.191406 502.539062 683.191406 L 86.210938 683.191406 C 82.675781 683.191406 79.800781 680.324219 79.800781 676.789062 C 79.804688 673.25 82.671875 670.386719 86.210938 670.386719 Z M 86.210938 744.898438 L 502.539062 744.894531 C 506.078125 744.894531 508.949219 747.765625 508.949219 751.300781 C 508.949219 754.835938 506.078125 757.703125 502.539062 757.703125 L 86.210938 757.703125 C 82.675781 757.703125 79.800781 754.835938 79.800781 751.300781 C 79.804688 747.765625 82.671875 744.898438 86.210938 744.898438 Z M 254.453125 148.804688 L 502.539062 148.804688 C 506.078125 148.804688 508.949219 151.671875 508.949219 155.207031 C 508.949219 158.742188 506.078125 161.609375 502.539062 161.609375 L 254.453125 161.609375 C 250.917969 161.609375 248.046875 158.742188 248.046875 155.207031 C 248.050781 151.667969 250.917969 148.804688 254.453125 148.804688 Z M 254.453125 223.316406 L 502.539062 223.3125 C 506.078125 223.3125 508.949219 226.183594 508.949219 229.71875 C 508.949219 233.25 506.078125 236.121094 502.539062 236.117188 L 254.453125 236.117188 C 250.917969 236.117188 248.046875 233.253906 248.046875 229.71875 C 248.050781 226.179688 250.917969 223.316406 254.453125 223.316406 Z M 254.453125 74.292969 L 502.539062 74.289062 C 506.078125 74.289062 508.949219 77.160156 508.949219 80.695312 C 508.949219 84.230469 506.078125 87.097656 502.539062 87.097656 L 254.453125 87.097656 C 250.917969 87.097656 248.046875 84.230469 248.046875 80.695312 C 248.050781 77.160156 250.917969 74.292969 254.453125 74.292969 Z M 254.453125 74.292969 " fill-opacity="1" fill-rule="evenodd"/></svg>