<svg xmlns="http://www.w3.org/2000/svg" xmlns:xlink="http://www.w3.org/1999/xlink" width="793" zoomAndPan="magnify" viewBox="0 0 594.95996 842.24997" height="1122" preserveAspectRatio="xMidYMid meet" version="1.0"><defs><clipPath id="id1"><path d="M 0.246094 0 L 594.675781 0 L 594.675781 841 L 0.246094 841 Z M 0.246094 0 " clip-rule="nonzero"/></clipPath><clipPath id="id2"><path d="M 0.246094 0 L 594.675781 0 L 594.675781 840.792969 L 0.246094 840.792969 Z M 0.246094 0 " clip-rule="nonzero"/></clipPath><clipPath id="id3"><path d="M 2 0 L 593 0 L 593 765.175781 L 2 765.175781 Z M 2 0 " clip-rule="nonzero"/></clipPath><clipPath id="id4"><path d="M 0.246094 359 L 362 359 L 362 765.175781 L 0.246094 765.175781 Z M 0.246094 359 " clip-rule="nonzero"/></clipPath></defs><g clip-path="url(#id1)"><path fill="#ffffff" d="M 0.246094 0 L 594.714844 0 L 594.714844 840.792969 L 0.246094 840.792969 Z M 0.246094 0 " fill-opacity="1" fill-rule="nonzero"/></g><g clip-path="url(#id2)"><path fill="#ffffff" d="M 0.246094 0 L 594.714844 0 L 594.714844 840.792969 L 0.246094 840.792969 Z M 0.246094 0 " fill-opacity="1" fill-rule="nonzero"/><path fill="#ffffff" d="M 0.246094 0 L 594.714844 0 L 594.714844 840.792969 L 0.246094 840.792969 Z M 0.246094 0 " fill-opacity="1" fill-rule="nonzero"/></g><path fill="#ffffff" d="M 12.515625 10.378906 L 582.433594 10.378906 L 582.433594 755.128906 L 242.675781 755.128906 L 12.515625 514.179688 Z M 12.515625 10.378906 " fill-opacity="1" fill-rule="nonzero"/><g clip-path="url(#id3)"><path stroke-linecap="round" transform="matrix(5.480008, 0, 0, 5.476093, 3377.238842, -1272.998804)" fill="none" stroke-linejoin="round" d="M -613.999688 234.3601 L -510.000211 234.3601 L -510.000211 370.360346 L -571.999721 370.360346 L -613.999688 326.360141 Z M -613.999688 234.3601 " stroke="#000000" stroke-width="3.75" stroke-opacity="1" stroke-miterlimit="4"/></g><g clip-path="url(#id4)"><path stroke-linecap="butt" transform="matrix(5.480008, 0, 0, 5.476093, 3377.238842, -1272.998804)" fill="none" stroke-linejoin="miter" d="M -613.750202 325.51984 L -571.529974 319.249688 L -571.948398 370.665651 " stroke="#000000" stroke-width="3.75" stroke-opacity="1" stroke-miterlimit="4"/></g><path stroke-linecap="butt" transform="matrix(5.480008, 0, 0, 5.476093, 3377.238842, -1272.998804)" fill="none" stroke-linejoin="miter" d="M -599.999937 252.360217 L -526.000131 252.360217 " stroke="#000000" stroke-width="2.775" stroke-opacity="1" stroke-miterlimit="4"/><path stroke-linecap="butt" transform="matrix(5.480008, 0, 0, 5.476093, 3377.238842, -1272.998804)" fill="none" stroke-linejoin="miter" d="M -599.999937 264.359819 L -526.000131 264.359819 " stroke="#000000" stroke-width="2.775" stroke-opacity="1" stroke-miterlimit="4"/><path stroke-linecap="butt" transform="matrix(5.480008, 0, 0, 5.476093, 3377.238842, -1272.998804)" fill="none" stroke-linejoin="miter" d="M -599.999937 276.360134 L -526.000131 276.360134 " stroke="#000000" stroke-width="2.775" stroke-opacity="1" stroke-miterlimit="4"/><path stroke-linecap="butt" transform="matrix(5.480008, 0, 0, 5.476093, 3377.238842, -1272.998804)" fill="none" stroke-linejoin="miter" d="M -599.999937 288.359736 L -526.000131 288.359736 " stroke="#000000" stroke-width="2.775" stroke-opacity="1" stroke-miterlimit="4"/><path stroke-linecap="butt" transform="matrix(5.480008, 0, 0, 5.476093, 3377.238842, -1272.998804)" fill="none" stroke-linejoin="miter" d="M -599.999937 300.360052 L -526.000131 300.360052 " stroke="#000000" stroke-width="2.775" stroke-opacity="1" stroke-miterlimit="4"/><path stroke-linecap="butt" transform="matrix(5.480008, 0, 0, 5.476093, 3377.238842, -1272.998804)" fill="none" stroke-linejoin="miter" d="M -599.999937 312.359654 L -526.000131 312.359654 " stroke="#000000" stroke-width="2.775" stroke-opacity="1" stroke-miterlimit="4"/><path stroke-linecap="butt" transform="matrix(5.480008, 0, 0, 5.476093, 3377.238842, -1272.998804)" fill="none" stroke-linejoin="miter" d="M -565.99993 324.359969 L -526.000131 324.359969 " stroke="#000000" stroke-width="2.775" stroke-opacity="1" stroke-miterlimit="4"/><path stroke-linecap="butt" transform="matrix(5.480008, 0, 0, 5.476093, 3377.238842, -1272.998804)" fill="none" stroke-linejoin="miter" d="M -565.99993 336.360285 L -526.000131 336.360285 " stroke="#000000" stroke-width="2.775" stroke-opacity="1" stroke-miterlimit="4"/><path stroke-linecap="butt" transform="matrix(5.480008, 0, 0, 5.476093, 3377.238842, -1272.998804)" fill="none" stroke-linejoin="miter" d="M -565.969991 348.359887 L -525.997992 348.359887 " stroke="#000000" stroke-width="2.775" stroke-opacity="1" stroke-miterlimit="4"/></svg>