<svg xmlns="http://www.w3.org/2000/svg" xmlns:xlink="http://www.w3.org/1999/xlink" width="793" zoomAndPan="magnify" viewBox="0 0 594.95996 842.24997" height="1122" preserveAspectRatio="xMidYMid meet" version="1.0"><defs><clipPath id="id1"><path d="M 0.246094 0 L 594.675781 0 L 594.675781 841 L 0.246094 841 Z M 0.246094 0 " clip-rule="nonzero"/></clipPath><clipPath id="id2"><path d="M 0.246094 0 L 594.675781 0 L 594.675781 840.792969 L 0.246094 840.792969 Z M 0.246094 0 " clip-rule="nonzero"/></clipPath><clipPath id="id3"><path d="M 1 0 L 594 0 L 594 763.679688 L 1 763.679688 Z M 1 0 " clip-rule="nonzero"/></clipPath></defs><g clip-path="url(#id1)"><path fill="#ffffff" d="M 0.246094 0 L 594.714844 0 L 594.714844 840.792969 L 0.246094 840.792969 Z M 0.246094 0 " fill-opacity="1" fill-rule="nonzero"/></g><g clip-path="url(#id2)"><path fill="#ffffff" d="M 0.246094 0 L 594.714844 0 L 594.714844 840.792969 L 0.246094 840.792969 Z M 0.246094 0 " fill-opacity="1" fill-rule="nonzero"/><path fill="#ffffff" d="M 0.246094 0 L 594.714844 0 L 594.714844 840.796875 L 0.246094 840.796875 Z M 0.246094 0 " fill-opacity="1" fill-rule="nonzero"/></g><g clip-path="url(#id3)"><path fill="#e7e7e5" d="M 593.195312 763.71875 L 1.417969 763.71875 L 1.417969 -0.0390625 L 517.957031 -0.0390625 L 593.195312 74.136719 L 593.195312 763.71875 " fill-opacity="1" fill-rule="nonzero"/></g><path fill="#9ab0e0" d="M 518.304688 74.40625 L 593.195312 74.136719 L 517.957031 -0.0390625 Z M 518.304688 74.40625 " fill-opacity="1" fill-rule="nonzero"/><path stroke-linecap="round" transform="matrix(0.385046, 0, 0, -0.384918, -521.320562, 1200.175704)" fill="none" stroke-linejoin="miter" d="M 2193.20393 2771.002836 L 2698.896216 2771.002836 " stroke="#192646" stroke-width="30" stroke-opacity="1" stroke-miterlimit="10"/><path stroke-linecap="round" transform="matrix(0.385046, 0, 0, -0.384918, -521.320562, 1200.175704)" fill="none" stroke-linejoin="miter" d="M 2193.20393 2533.797377 L 2698.896216 2533.797377 " stroke="#192646" stroke-width="30" stroke-opacity="1" stroke-miterlimit="10"/><path stroke-linecap="round" transform="matrix(0.385046, 0, 0, -0.384918, -521.320562, 1200.175704)" fill="none" stroke-linejoin="miter" d="M 2193.20393 2296.602067 L 2698.896216 2296.602067 " stroke="#192646" stroke-width="30" stroke-opacity="1" stroke-miterlimit="10"/><path stroke-linecap="round" transform="matrix(0.385046, 0, 0, -0.384918, -521.320562, 1200.175704)" fill="none" stroke-linejoin="miter" d="M 1581.101902 2059.49809 L 2698.896216 2059.49809 " stroke="#192646" stroke-width="30" stroke-opacity="1" stroke-miterlimit="10"/><path stroke-linecap="round" transform="matrix(0.385046, 0, 0, -0.384918, -521.320562, 1200.175704)" fill="none" stroke-linejoin="miter" d="M 1581.101902 1788.204622 L 2698.896216 1788.204622 " stroke="#192646" stroke-width="30" stroke-opacity="1" stroke-miterlimit="10"/><path stroke-linecap="round" transform="matrix(0.385046, 0, 0, -0.384918, -521.320562, 1200.175704)" fill="none" stroke-linejoin="miter" d="M 1581.101902 1516.901005 L 2698.896216 1516.901005 " stroke="#192646" stroke-width="30" stroke-opacity="1" stroke-miterlimit="10"/><path fill="#9ab0e0" d="M 87.476562 224.871094 C 87.476562 177.179688 126.171875 138.53125 173.878906 138.53125 C 221.585938 138.53125 260.246094 177.179688 260.246094 224.871094 C 260.246094 272.5625 221.585938 311.207031 173.878906 311.207031 C 126.171875 311.207031 87.476562 272.5625 87.476562 224.871094 " fill-opacity="1" fill-rule="nonzero"/><path fill="#d54050" d="M 173.878906 224.871094 L 213.734375 301.46875 C 201.410156 307.898438 187.742188 311.207031 173.878906 311.207031 C 126.480469 311.207031 87.476562 272.214844 87.476562 224.871094 C 87.476562 177.488281 126.480469 138.53125 173.878906 138.53125 C 221.28125 138.53125 260.246094 177.488281 260.246094 224.871094 L 173.878906 224.871094 " fill-opacity="1" fill-rule="nonzero"/></svg>