<svg xmlns="http://www.w3.org/2000/svg" xmlns:xlink="http://www.w3.org/1999/xlink" width="1920" zoomAndPan="magnify" viewBox="0 0 1440 809.999993" height="1080" preserveAspectRatio="xMidYMid meet" version="1.0"><defs><clipPath id="id1"><path d="M 98.300781 0 L 1359.050781 0 L 1359.050781 810 L 98.300781 810 Z M 98.300781 0 " clip-rule="nonzero"/></clipPath></defs><rect x="-144" width="1728" fill="#ffffff" y="-80.999999" height="971.999992" fill-opacity="1"/><rect x="-144" width="1728" fill="#ffffff" y="-80.999999" height="971.999992" fill-opacity="1"/><rect x="-144" width="1728" fill="#ffffff" y="-80.999999" height="971.999992" fill-opacity="1"/><path fill="#64c993" d="M 1297.035156 796.09375 L 160.34375 796.09375 C 133.621094 796.09375 111.960938 774.433594 111.960938 747.710938 L 111.960938 62.226562 C 111.960938 35.515625 133.621094 13.855469 160.34375 13.855469 L 1297.035156 13.855469 C 1323.757812 13.855469 1345.421875 35.515625 1345.421875 62.226562 L 1345.421875 747.710938 C 1345.421875 774.433594 1323.757812 796.09375 1297.035156 796.09375 " fill-opacity="1" fill-rule="nonzero"/><g clip-path="url(#id1)"><path fill="#52423b" d="M 160.34375 27.5 C 141.1875 27.5 125.601562 43.070312 125.601562 62.226562 L 125.601562 747.710938 C 125.601562 766.867188 141.1875 782.449219 160.34375 782.449219 L 1297.035156 782.449219 C 1316.191406 782.449219 1331.777344 766.867188 1331.777344 747.710938 L 1331.777344 62.226562 C 1331.777344 43.070312 1316.191406 27.5 1297.035156 27.5 Z M 1297.035156 809.738281 L 160.34375 809.738281 C 126.136719 809.738281 98.316406 781.917969 98.316406 747.710938 L 98.316406 62.226562 C 98.316406 28.03125 126.136719 0.210938 160.34375 0.210938 L 1297.035156 0.210938 C 1331.230469 0.210938 1359.066406 28.03125 1359.066406 62.226562 L 1359.066406 747.710938 C 1359.066406 781.917969 1331.230469 809.738281 1297.035156 809.738281 " fill-opacity="1" fill-rule="nonzero"/></g><path fill="#ffffff" d="M 515.835938 471.382812 L 186.546875 471.382812 L 186.546875 85.707031 L 515.835938 85.707031 L 515.835938 471.382812 " fill-opacity="1" fill-rule="nonzero"/><path fill="#52423b" d="M 193.367188 464.550781 L 509.011719 464.550781 L 509.011719 92.53125 L 193.367188 92.53125 Z M 515.835938 478.191406 L 186.546875 478.191406 C 182.78125 478.191406 179.722656 475.144531 179.722656 471.371094 L 179.722656 85.707031 C 179.722656 81.945312 182.78125 78.886719 186.546875 78.886719 L 515.835938 78.886719 C 519.597656 78.886719 522.65625 81.945312 522.65625 85.707031 L 522.65625 471.371094 C 522.65625 475.144531 519.597656 478.191406 515.835938 478.191406 " fill-opacity="1" fill-rule="nonzero"/><path fill="#f9b054" d="M 351.195312 305.191406 C 289.59375 305.191406 239.652344 379.59375 239.652344 471.382812 L 462.730469 471.382812 C 462.730469 379.59375 412.796875 305.191406 351.195312 305.191406 " fill-opacity="1" fill-rule="nonzero"/><path fill="#52423b" d="M 246.570312 464.550781 L 455.8125 464.550781 C 453.453125 379.828125 407.425781 312.003906 351.183594 312.003906 C 294.953125 312.003906 248.925781 379.828125 246.570312 464.550781 Z M 462.730469 478.191406 L 239.652344 478.191406 C 235.890625 478.191406 232.828125 475.144531 232.828125 471.371094 C 232.828125 375.980469 285.925781 298.359375 351.183594 298.359375 C 416.453125 298.359375 469.550781 375.980469 469.550781 471.371094 C 469.550781 475.144531 466.492188 478.191406 462.730469 478.191406 " fill-opacity="1" fill-rule="nonzero"/><path fill="#f9b054" d="M 448.882812 252.972656 C 448.882812 306.921875 405.144531 350.65625 351.195312 350.65625 C 297.246094 350.65625 253.511719 306.921875 253.511719 252.972656 C 253.511719 199.027344 297.246094 155.292969 351.195312 155.292969 C 405.144531 155.292969 448.882812 199.027344 448.882812 252.972656 " fill-opacity="1" fill-rule="nonzero"/><path fill="#52423b" d="M 351.195312 162.113281 C 301.085938 162.113281 260.332031 202.875 260.332031 252.972656 C 260.332031 303.082031 301.085938 343.832031 351.195312 343.832031 C 401.296875 343.832031 442.050781 303.082031 442.050781 252.972656 C 442.050781 202.875 401.296875 162.113281 351.195312 162.113281 Z M 351.195312 357.476562 C 293.570312 357.476562 246.6875 310.597656 246.6875 252.972656 C 246.6875 195.347656 293.570312 148.46875 351.195312 148.46875 C 408.824219 148.46875 455.691406 195.347656 455.691406 252.972656 C 455.691406 310.597656 408.824219 357.476562 351.195312 357.476562 " fill-opacity="1" fill-rule="nonzero"/><path fill="#ffffff" d="M 1238.085938 230.332031 L 614.074219 230.332031 L 614.074219 179.394531 L 1238.085938 179.394531 L 1238.085938 230.332031 " fill-opacity="1" fill-rule="nonzero"/><path fill="#52423b" d="M 620.898438 223.511719 L 1231.265625 223.511719 L 1231.265625 186.214844 L 620.898438 186.214844 Z M 1238.085938 237.15625 L 614.074219 237.15625 C 610.3125 237.15625 607.253906 234.097656 607.253906 230.332031 L 607.253906 179.394531 C 607.253906 175.628906 610.3125 172.570312 614.074219 172.570312 L 1238.085938 172.570312 C 1241.851562 172.570312 1244.910156 175.628906 1244.910156 179.394531 L 1244.910156 230.332031 C 1244.910156 234.097656 1241.851562 237.15625 1238.085938 237.15625 " fill-opacity="1" fill-rule="nonzero"/><path fill="#ffffff" d="M 1238.085938 314.703125 L 614.074219 314.703125 L 614.074219 267.40625 L 1238.085938 267.40625 L 1238.085938 314.703125 " fill-opacity="1" fill-rule="nonzero"/><path fill="#52423b" d="M 620.898438 307.878906 L 1231.265625 307.878906 L 1231.265625 274.226562 L 620.898438 274.226562 Z M 1238.085938 321.523438 L 614.074219 321.523438 C 610.3125 321.523438 607.253906 318.476562 607.253906 314.703125 L 607.253906 267.40625 C 607.253906 263.644531 610.3125 260.585938 614.074219 260.585938 L 1238.085938 260.585938 C 1241.851562 260.585938 1244.910156 263.644531 1244.910156 267.40625 L 1244.910156 314.703125 C 1244.910156 318.476562 1241.851562 321.523438 1238.085938 321.523438 " fill-opacity="1" fill-rule="nonzero"/><path fill="#ffffff" d="M 1238.085938 402.714844 L 614.074219 402.714844 L 614.074219 351.785156 L 1238.085938 351.785156 L 1238.085938 402.714844 " fill-opacity="1" fill-rule="nonzero"/><path fill="#52423b" d="M 620.898438 395.894531 L 1231.265625 395.894531 L 1231.265625 358.605469 L 620.898438 358.605469 Z M 1238.085938 409.535156 L 614.074219 409.535156 C 610.3125 409.535156 607.253906 406.488281 607.253906 402.714844 L 607.253906 351.785156 C 607.253906 348.011719 610.3125 344.960938 614.074219 344.960938 L 1238.085938 344.960938 C 1241.851562 344.960938 1244.910156 348.011719 1244.910156 351.785156 L 1244.910156 402.714844 C 1244.910156 406.488281 1241.851562 409.535156 1238.085938 409.535156 " fill-opacity="1" fill-rule="nonzero"/><path fill="#ffffff" d="M 1238.085938 487.09375 L 614.074219 487.09375 L 614.074219 439.796875 L 1238.085938 439.796875 L 1238.085938 487.09375 " fill-opacity="1" fill-rule="nonzero"/><path fill="#52423b" d="M 620.898438 480.269531 L 1231.265625 480.269531 L 1231.265625 446.621094 L 620.898438 446.621094 Z M 1238.085938 493.914062 L 614.074219 493.914062 C 610.3125 493.914062 607.253906 490.867188 607.253906 487.09375 L 607.253906 439.796875 C 607.253906 436.023438 610.3125 432.976562 614.074219 432.976562 L 1238.085938 432.976562 C 1241.851562 432.976562 1244.910156 436.023438 1244.910156 439.796875 L 1244.910156 487.09375 C 1244.910156 490.867188 1241.851562 493.914062 1238.085938 493.914062 " fill-opacity="1" fill-rule="nonzero"/><path fill="#ffffff" d="M 1238.085938 643.539062 L 994.296875 643.539062 L 994.296875 596.246094 L 1238.085938 596.246094 L 1238.085938 643.539062 " fill-opacity="1" fill-rule="nonzero"/><path fill="#52423b" d="M 1001.121094 636.71875 L 1231.265625 636.71875 L 1231.265625 603.066406 L 1001.121094 603.066406 Z M 1238.085938 650.359375 L 994.296875 650.359375 C 990.535156 650.359375 987.476562 647.3125 987.476562 643.539062 L 987.476562 596.246094 C 987.476562 592.480469 990.535156 589.421875 994.296875 589.421875 L 1238.085938 589.421875 C 1241.851562 589.421875 1244.910156 592.480469 1244.910156 596.246094 L 1244.910156 643.539062 C 1244.910156 647.3125 1241.851562 650.359375 1238.085938 650.359375 " fill-opacity="1" fill-rule="nonzero"/></svg>