<svg xmlns="http://www.w3.org/2000/svg" xmlns:xlink="http://www.w3.org/1999/xlink" width="793" zoomAndPan="magnify" viewBox="0 0 594.95996 842.24997" height="1122" preserveAspectRatio="xMidYMid meet" version="1.0"><defs><clipPath id="id1"><path d="M 0.246094 0 L 594.675781 0 L 594.675781 841 L 0.246094 841 Z M 0.246094 0 " clip-rule="nonzero"/></clipPath><clipPath id="id2"><path d="M 0.246094 0 L 594.675781 0 L 594.675781 840.792969 L 0.246094 840.792969 Z M 0.246094 0 " clip-rule="nonzero"/></clipPath><clipPath id="id3"><path d="M 0.246094 0 L 590.222656 0 L 590.222656 780.898438 L 0.246094 780.898438 Z M 0.246094 0 " clip-rule="nonzero"/></clipPath></defs><g clip-path="url(#id1)"><path fill="#ffffff" d="M 0.246094 0 L 594.714844 0 L 594.714844 840.792969 L 0.246094 840.792969 Z M 0.246094 0 " fill-opacity="1" fill-rule="nonzero"/></g><g clip-path="url(#id2)"><path fill="#ffffff" d="M 0.246094 0 L 594.714844 0 L 594.714844 840.792969 L 0.246094 840.792969 Z M 0.246094 0 " fill-opacity="1" fill-rule="nonzero"/><path fill="#ffffff" d="M 0.246094 0 L 594.714844 0 L 594.714844 840.792969 L 0.246094 840.792969 Z M 0.246094 0 " fill-opacity="1" fill-rule="nonzero"/></g><g clip-path="url(#id3)"><path fill="#231f20" d="M 37.171875 0.144531 C 19.125 0.144531 4.34375 14.816406 4.210938 32.847656 L 0.355469 744.539062 C 0.265625 762.667969 14.941406 777.507812 33.085938 777.640625 L 553.117188 780.46875 L 553.292969 780.46875 C 571.394531 780.46875 586.167969 765.761719 586.222656 747.6875 L 590.109375 36.0625 C 590.199219 17.910156 575.503906 3.058594 557.359375 2.972656 L 37.335938 0.144531 Z M 37.171875 17.050781 L 37.25 17.050781 L 557.269531 19.882812 C 566.105469 19.925781 573.234375 27.125 573.191406 35.976562 L 569.300781 747.640625 C 569.277344 756.449219 562.105469 763.5625 553.292969 763.5625 L 553.21875 763.5625 L 33.207031 760.730469 C 24.359375 760.675781 17.230469 753.464844 17.277344 744.625 L 21.132812 32.96875 C 21.199219 24.164062 28.359375 17.050781 37.171875 17.050781 " fill-opacity="1" fill-rule="nonzero"/></g><path fill="#e5f7fd" d="M 569.300781 747.640625 C 569.277344 756.472656 562.0625 763.605469 553.21875 763.5625 L 33.207031 760.730469 C 24.359375 760.675781 17.230469 753.464844 17.277344 744.625 L 21.132812 32.96875 C 21.199219 24.140625 28.402344 17.019531 37.25 17.050781 L 557.269531 19.882812 C 566.105469 19.925781 573.234375 27.125 573.191406 35.976562 L 569.300781 747.640625 " fill-opacity="1" fill-rule="nonzero"/><path fill="#d7d3d5" d="M 569.300781 747.640625 L 567.890625 747.632812 C 567.867188 755.65625 561.324219 762.140625 553.292969 762.140625 L 553.238281 762.140625 L 552.984375 762.164062 L 553.21875 763.5625 L 553.21875 762.152344 L 33.207031 759.324219 C 25.175781 759.265625 18.6875 752.738281 18.6875 744.714844 L 18.6875 744.679688 L 17.761719 744.667969 L 18.6875 744.746094 L 18.6875 744.679688 L 17.761719 744.667969 L 18.6875 744.746094 L 18.6875 744.691406 L 22.542969 32.980469 C 22.597656 24.957031 29.128906 18.460938 37.171875 18.460938 L 37.203125 18.460938 L 37.191406 17.414062 L 37.027344 18.449219 L 37.203125 18.460938 L 37.191406 17.414062 L 37.027344 18.449219 L 37.117188 18.460938 L 557.261719 21.289062 C 565.292969 21.335938 571.78125 27.863281 571.78125 35.886719 L 571.78125 36.03125 L 573.191406 35.976562 L 571.78125 35.964844 L 567.890625 747.632812 L 569.300781 747.640625 L 570.710938 747.640625 L 574.601562 35.933594 L 574.601562 35.910156 L 574.191406 35.933594 L 574.601562 35.933594 L 574.601562 35.910156 L 574.191406 35.933594 L 574.601562 35.933594 L 574.601562 35.886719 C 574.601562 26.308594 566.855469 18.527344 557.28125 18.472656 L 37.25 15.644531 L 37.25 17.050781 L 37.457031 15.664062 L 37.226562 15.644531 L 37.171875 15.644531 C 27.574219 15.644531 19.789062 23.382812 19.722656 32.960938 L 15.867188 744.625 L 17.277344 744.625 L 15.867188 744.515625 L 15.867188 744.714844 C 15.867188 754.292969 23.597656 762.074219 33.195312 762.140625 L 553.328125 764.96875 L 553.4375 764.949219 L 553.261719 763.824219 L 553.273438 764.957031 L 553.4375 764.949219 L 553.261719 763.824219 L 553.273438 764.957031 L 553.261719 764.472656 L 553.261719 764.957031 L 553.273438 764.957031 L 553.261719 764.472656 L 553.261719 764.957031 L 553.292969 764.957031 C 562.878906 764.957031 570.679688 757.230469 570.710938 747.640625 L 569.300781 747.640625 " fill-opacity="1" fill-rule="nonzero"/><path fill="#e63a33" d="M 83.746094 183.601562 C 83.738281 185.605469 82.09375 187.222656 80.089844 187.222656 L 53.960938 187.082031 C 51.921875 187.082031 50.300781 185.429688 50.300781 183.425781 L 50.457031 157.324219 C 50.46875 155.289062 52.109375 153.667969 54.148438 153.679688 L 80.246094 153.824219 C 82.273438 153.824219 83.902344 155.484375 83.890625 157.488281 L 83.746094 183.601562 " fill-opacity="1" fill-rule="nonzero"/><path fill="#44556b" d="M 542.210938 189.746094 L 92.484375 187.289062 L 92.660156 153.878906 L 542.398438 156.332031 L 542.210938 189.746094 " fill-opacity="1" fill-rule="nonzero"/><path fill="#44556b" d="M 139.425781 193.125 L 82.117188 192.816406 L 81.996094 212.324219 L 139.3125 212.632812 L 139.425781 193.125 " fill-opacity="1" fill-rule="nonzero"/><path fill="#44556b" d="M 349.605469 194.257812 L 161.910156 193.246094 L 161.796875 212.753906 L 349.480469 213.765625 L 349.605469 194.257812 " fill-opacity="1" fill-rule="nonzero"/><path fill="#44556b" d="M 427.675781 194.6875 L 360.222656 194.324219 L 360.125 213.820312 L 427.578125 214.195312 L 427.675781 194.6875 " fill-opacity="1" fill-rule="nonzero"/><path fill="#44556b" d="M 437.050781 194.742188 L 436.953125 214.25 L 542.078125 214.824219 L 542.191406 195.316406 L 437.050781 194.742188 " fill-opacity="1" fill-rule="nonzero"/><path fill="#44556b" d="M 227.675781 219.050781 L 81.972656 218.257812 L 81.863281 237.777344 L 227.578125 238.570312 L 227.675781 219.050781 " fill-opacity="1" fill-rule="nonzero"/><path fill="#44556b" d="M 478.769531 220.425781 L 243.914062 219.148438 L 243.792969 238.65625 L 478.660156 239.933594 L 478.769531 220.425781 " fill-opacity="1" fill-rule="nonzero"/><path fill="#44556b" d="M 491.25 220.492188 L 491.152344 240 L 541.9375 240.273438 L 542.058594 220.765625 L 491.25 220.492188 " fill-opacity="1" fill-rule="nonzero"/><path fill="#44556b" d="M 163.199219 244.148438 L 81.832031 243.71875 L 81.722656 263.238281 L 163.074219 263.65625 L 163.199219 244.148438 " fill-opacity="1" fill-rule="nonzero"/><path fill="#44556b" d="M 173.816406 244.226562 L 173.707031 263.734375 L 397.324219 264.945312 L 397.425781 245.425781 L 173.816406 244.226562 " fill-opacity="1" fill-rule="nonzero"/><path fill="#44556b" d="M 408.042969 245.492188 L 407.933594 265 L 541.804688 265.726562 L 541.914062 246.230469 L 408.042969 245.492188 " fill-opacity="1" fill-rule="nonzero"/><path fill="#44556b" d="M 112.457031 269.347656 L 81.6875 269.171875 L 81.589844 288.667969 L 112.355469 288.84375 L 112.457031 269.347656 " fill-opacity="1" fill-rule="nonzero"/><path fill="#44556b" d="M 244.882812 270.054688 L 134.3125 269.457031 L 134.214844 288.964844 L 244.773438 289.570312 L 244.882812 270.054688 " fill-opacity="1" fill-rule="nonzero"/><path fill="#44556b" d="M 371.679688 270.746094 L 260.492188 270.152344 L 260.394531 289.648438 L 371.570312 290.253906 L 371.679688 270.746094 " fill-opacity="1" fill-rule="nonzero"/><path fill="#e63a33" d="M 82.789062 357.132812 C 82.789062 359.15625 81.148438 360.777344 79.132812 360.753906 L 53.011719 360.621094 C 50.972656 360.609375 49.355469 358.96875 49.378906 356.945312 L 49.507812 330.84375 C 49.53125 328.816406 51.171875 327.199219 53.1875 327.222656 L 79.308594 327.351562 C 81.324219 327.375 82.953125 329.015625 82.945312 331.019531 L 82.789062 357.132812 " fill-opacity="1" fill-rule="nonzero"/><path fill="#44556b" d="M 541.277344 363.273438 L 91.535156 360.832031 L 91.710938 327.429688 L 541.453125 329.863281 L 541.277344 363.273438 " fill-opacity="1" fill-rule="nonzero"/><path fill="#44556b" d="M 158.140625 366.765625 L 81.160156 366.355469 L 81.058594 385.851562 L 158.050781 386.28125 L 158.140625 366.765625 " fill-opacity="1" fill-rule="nonzero"/><path fill="#44556b" d="M 348.667969 367.789062 L 181.890625 366.886719 L 181.804688 386.402344 L 348.558594 387.304688 L 348.667969 367.789062 " fill-opacity="1" fill-rule="nonzero"/><path fill="#44556b" d="M 476.082031 368.492188 L 357.402344 367.855469 L 357.28125 387.363281 L 475.980469 388 L 476.082031 368.492188 " fill-opacity="1" fill-rule="nonzero"/><path fill="#44556b" d="M 491.703125 368.582031 L 491.601562 388.078125 L 541.132812 388.351562 L 541.242188 368.84375 L 491.703125 368.582031 " fill-opacity="1" fill-rule="nonzero"/><path fill="#44556b" d="M 234.21875 392.632812 L 81.027344 391.796875 L 80.90625 411.316406 L 234.121094 412.132812 L 234.21875 392.632812 " fill-opacity="1" fill-rule="nonzero"/><path fill="#44556b" d="M 412.859375 393.601562 L 249.828125 392.722656 L 249.71875 412.21875 L 412.761719 413.109375 L 412.859375 393.601562 " fill-opacity="1" fill-rule="nonzero"/><path fill="#44556b" d="M 459.082031 393.84375 L 423.488281 393.660156 L 423.367188 413.164062 L 458.984375 413.363281 L 459.082031 393.84375 " fill-opacity="1" fill-rule="nonzero"/><path fill="#44556b" d="M 163.503906 417.703125 L 80.882812 417.25 L 80.796875 436.757812 L 163.394531 437.207031 L 163.503906 417.703125 " fill-opacity="1" fill-rule="nonzero"/><path fill="#44556b" d="M 301.527344 418.460938 L 172.878906 417.757812 L 172.757812 437.265625 L 301.441406 437.957031 L 301.527344 418.460938 " fill-opacity="1" fill-rule="nonzero"/><path fill="#44556b" d="M 453.960938 419.285156 L 315.300781 418.527344 L 315.175781 438.035156 L 453.839844 438.78125 L 453.960938 419.285156 " fill-opacity="1" fill-rule="nonzero"/><path fill="#44556b" d="M 470.792969 419.386719 L 470.707031 438.882812 L 540.847656 439.265625 L 540.976562 419.761719 L 470.792969 419.386719 " fill-opacity="1" fill-rule="nonzero"/><path fill="#44556b" d="M 108.402344 442.855469 L 80.75 442.703125 L 80.640625 462.21875 L 108.292969 462.363281 L 108.402344 442.855469 " fill-opacity="1" fill-rule="nonzero"/><path fill="#44556b" d="M 255.183594 443.660156 L 120.265625 442.921875 L 120.15625 462.429688 L 255.074219 463.167969 L 255.183594 443.660156 " fill-opacity="1" fill-rule="nonzero"/><path fill="#44556b" d="M 418.839844 444.550781 L 269.539062 443.738281 L 269.4375 463.246094 L 418.71875 464.058594 L 418.839844 444.550781 " fill-opacity="1" fill-rule="nonzero"/><path fill="#e63a33" d="M 81.863281 530.660156 C 81.851562 532.6875 80.199219 534.304688 78.195312 534.304688 L 52.078125 534.152344 C 50.039062 534.140625 48.417969 532.488281 48.429688 530.484375 L 48.574219 504.371094 C 48.574219 502.359375 50.238281 500.730469 52.253906 500.738281 L 78.371094 500.882812 C 80.386719 500.90625 82.019531 502.546875 81.996094 504.558594 L 81.863281 530.660156 " fill-opacity="1" fill-rule="nonzero"/><path fill="#44556b" d="M 540.328125 536.816406 L 90.601562 534.359375 L 90.777344 500.960938 L 540.515625 503.394531 L 540.328125 536.816406 " fill-opacity="1" fill-rule="nonzero"/><path fill="#44556b" d="M 152.203125 540.273438 L 80.222656 539.886719 L 80.113281 559.382812 L 152.09375 559.777344 L 152.203125 540.273438 " fill-opacity="1" fill-rule="nonzero"/><path fill="#44556b" d="M 320.851562 541.1875 L 164.078125 540.347656 L 163.980469 559.84375 L 320.75 560.691406 L 320.851562 541.1875 " fill-opacity="1" fill-rule="nonzero"/><path fill="#44556b" d="M 463.910156 541.96875 L 347.09375 541.328125 L 346.992188 560.824219 L 463.789062 561.476562 L 463.910156 541.96875 " fill-opacity="1" fill-rule="nonzero"/><path fill="#44556b" d="M 481.390625 542.054688 L 481.269531 561.5625 L 540.195312 561.882812 L 540.304688 542.375 L 481.390625 542.054688 " fill-opacity="1" fill-rule="nonzero"/><path fill="#44556b" d="M 243.285156 566.21875 L 80.089844 565.328125 L 79.96875 584.847656 L 243.164062 585.714844 L 243.285156 566.21875 " fill-opacity="1" fill-rule="nonzero"/><path fill="#44556b" d="M 366.941406 566.890625 L 258.882812 566.308594 L 258.785156 585.816406 L 366.84375 586.398438 L 366.941406 566.890625 " fill-opacity="1" fill-rule="nonzero"/><path fill="#44556b" d="M 505.59375 567.652344 L 380.050781 566.96875 L 379.964844 586.464844 L 505.503906 587.148438 L 505.59375 567.652344 " fill-opacity="1" fill-rule="nonzero"/><path fill="#44556b" d="M 516.234375 567.695312 L 516.125 587.203125 L 540.054688 587.332031 L 540.175781 567.828125 L 516.234375 567.695312 " fill-opacity="1" fill-rule="nonzero"/><path fill="#44556b" d="M 116.3125 590.988281 L 79.949219 590.789062 L 79.835938 610.285156 L 116.222656 610.496094 L 116.3125 590.988281 " fill-opacity="1" fill-rule="nonzero"/><path fill="#44556b" d="M 463.621094 592.871094 L 321.832031 592.101562 L 321.722656 611.609375 L 463.523438 612.378906 L 463.621094 592.871094 " fill-opacity="1" fill-rule="nonzero"/><path fill="#44556b" d="M 477.988281 592.949219 L 477.875 612.457031 L 539.921875 612.785156 L 540.019531 593.289062 L 477.988281 592.949219 " fill-opacity="1" fill-rule="nonzero"/><path fill="#44556b" d="M 304.347656 592.011719 L 130.082031 591.054688 L 129.972656 610.574219 L 304.238281 611.519531 L 304.347656 592.011719 " fill-opacity="1" fill-rule="nonzero"/><path fill="#44556b" d="M 224.261719 617.035156 L 79.816406 616.242188 L 79.703125 635.75 L 224.160156 636.53125 L 224.261719 617.035156 " fill-opacity="1" fill-rule="nonzero"/><path fill="#e63a33" d="M 514.804688 117.265625 L 78.636719 114.886719 L 78.96875 54.976562 L 515.121094 57.332031 L 514.804688 117.265625 " fill-opacity="1" fill-rule="nonzero"/></svg>