<svg xmlns="http://www.w3.org/2000/svg" xmlns:xlink="http://www.w3.org/1999/xlink" width="793" zoomAndPan="magnify" viewBox="0 0 594.95996 842.24997" height="1122" preserveAspectRatio="xMidYMid meet" version="1.0"><defs><clipPath id="id1"><path d="M 0.246094 0 L 594.675781 0 L 594.675781 841 L 0.246094 841 Z M 0.246094 0 " clip-rule="nonzero"/></clipPath><clipPath id="id2"><path d="M 0.246094 0 L 594.675781 0 L 594.675781 840.792969 L 0.246094 840.792969 Z M 0.246094 0 " clip-rule="nonzero"/></clipPath><clipPath id="id3"><path d="M 0.246094 0 L 594.675781 0 L 594.675781 822.824219 L 0.246094 822.824219 Z M 0.246094 0 " clip-rule="nonzero"/></clipPath><clipPath id="id4"><path d="M 492 0 L 594.675781 0 L 594.675781 91 L 492 91 Z M 492 0 " clip-rule="nonzero"/></clipPath></defs><g clip-path="url(#id1)"><path fill="#ffffff" d="M 0.246094 0 L 594.714844 0 L 594.714844 840.792969 L 0.246094 840.792969 Z M 0.246094 0 " fill-opacity="1" fill-rule="nonzero"/></g><g clip-path="url(#id2)"><path fill="#ffffff" d="M 0.246094 0 L 594.714844 0 L 594.714844 840.792969 L 0.246094 840.792969 Z M 0.246094 0 " fill-opacity="1" fill-rule="nonzero"/><path fill="#ffffff" d="M 0.246094 0 L 594.714844 0 L 594.714844 840.792969 L 0.246094 840.792969 Z M 0.246094 0 " fill-opacity="1" fill-rule="nonzero"/></g><g clip-path="url(#id3)"><path fill="#ffffff" d="M 492.9375 0.652344 L 0.246094 0.652344 L 0.246094 822.757812 L 594.039062 822.757812 L 594.039062 89.734375 L 492.9375 0.652344 " fill-opacity="1" fill-rule="nonzero"/></g><path fill="#f04052" d="M 264.214844 273.347656 L 45.972656 273.347656 L 45.972656 55.101562 L 264.214844 55.101562 L 264.214844 273.347656 " fill-opacity="1" fill-rule="nonzero"/><path fill="#328996" d="M 264.214844 342.113281 L 45.972656 342.113281 L 45.972656 288.375 L 264.214844 288.375 L 264.214844 342.113281 " fill-opacity="1" fill-rule="nonzero"/><path fill="#328996" d="M 533.707031 474.671875 L 315.46875 474.671875 L 315.46875 420.941406 L 533.707031 420.941406 L 533.707031 474.671875 " fill-opacity="1" fill-rule="nonzero"/><path fill="#328996" d="M 113.582031 403.679688 L 45.972656 403.679688 L 45.972656 349.9375 L 113.582031 349.9375 L 113.582031 403.679688 " fill-opacity="1" fill-rule="nonzero"/><path fill="#328996" d="M 188.898438 403.679688 L 121.289062 403.679688 L 121.289062 349.9375 L 188.898438 349.9375 L 188.898438 403.679688 " fill-opacity="1" fill-rule="nonzero"/><path fill="#328996" d="M 264.214844 403.679688 L 196.609375 403.679688 L 196.609375 349.9375 L 264.214844 349.9375 L 264.214844 403.679688 " fill-opacity="1" fill-rule="nonzero"/><path fill="#5d5f60" d="M 533.707031 305.539062 L 315.46875 305.539062 L 315.46875 295.199219 L 533.707031 295.199219 L 533.707031 305.539062 " fill-opacity="1" fill-rule="nonzero"/><path fill="#5d5f60" d="M 533.707031 328.101562 L 315.46875 328.101562 L 315.46875 322.925781 L 533.707031 322.925781 L 533.707031 328.101562 " fill-opacity="1" fill-rule="nonzero"/><path fill="#5d5f60" d="M 533.707031 342.113281 L 315.46875 342.113281 L 315.46875 336.945312 L 533.707031 336.945312 L 533.707031 342.113281 " fill-opacity="1" fill-rule="nonzero"/><path fill="#5d5f60" d="M 533.707031 352.863281 L 315.46875 352.863281 L 315.46875 347.691406 L 533.707031 347.691406 L 533.707031 352.863281 " fill-opacity="1" fill-rule="nonzero"/><path fill="#5d5f60" d="M 533.707031 366.875 L 315.46875 366.875 L 315.46875 361.707031 L 533.707031 361.707031 L 533.707031 366.875 " fill-opacity="1" fill-rule="nonzero"/><path fill="#5d5f60" d="M 533.707031 379.394531 L 315.46875 379.394531 L 315.46875 374.226562 L 533.707031 374.226562 L 533.707031 379.394531 " fill-opacity="1" fill-rule="nonzero"/><path fill="#5d5f60" d="M 533.707031 393.410156 L 315.46875 393.410156 L 315.46875 388.238281 L 533.707031 388.238281 L 533.707031 393.410156 " fill-opacity="1" fill-rule="nonzero"/><path fill="#5d5f60" d="M 533.707031 543.828125 L 315.46875 543.828125 L 315.46875 519.589844 L 533.707031 519.589844 L 533.707031 543.828125 " fill-opacity="1" fill-rule="nonzero"/><path fill="#5d5f60" d="M 533.707031 596.71875 L 315.46875 596.71875 L 315.46875 584.597656 L 533.707031 584.597656 L 533.707031 596.71875 " fill-opacity="1" fill-rule="nonzero"/><path fill="#5d5f60" d="M 533.707031 629.574219 L 315.46875 629.574219 L 315.46875 617.453125 L 533.707031 617.453125 L 533.707031 629.574219 " fill-opacity="1" fill-rule="nonzero"/><path fill="#5d5f60" d="M 533.707031 654.773438 L 315.46875 654.773438 L 315.46875 642.652344 L 533.707031 642.652344 L 533.707031 654.773438 " fill-opacity="1" fill-rule="nonzero"/><path fill="#5d5f60" d="M 533.707031 687.621094 L 315.46875 687.621094 L 315.46875 675.507812 L 533.707031 675.507812 L 533.707031 687.621094 " fill-opacity="1" fill-rule="nonzero"/><path fill="#5d5f60" d="M 533.707031 716.96875 L 315.46875 716.96875 L 315.46875 704.851562 L 533.707031 704.851562 L 533.707031 716.96875 " fill-opacity="1" fill-rule="nonzero"/><path fill="#5d5f60" d="M 533.707031 749.820312 L 315.46875 749.820312 L 315.46875 737.703125 L 533.707031 737.703125 L 533.707031 749.820312 " fill-opacity="1" fill-rule="nonzero"/><path fill="#5d5f60" d="M 264.214844 419.003906 L 45.972656 419.003906 L 45.972656 408.667969 L 264.214844 408.667969 L 264.214844 419.003906 " fill-opacity="1" fill-rule="nonzero"/><path fill="#5d5f60" d="M 264.214844 441.566406 L 45.972656 441.566406 L 45.972656 436.398438 L 264.214844 436.398438 L 264.214844 441.566406 " fill-opacity="1" fill-rule="nonzero"/><path fill="#5d5f60" d="M 264.214844 455.578125 L 45.972656 455.578125 L 45.972656 450.410156 L 264.214844 450.410156 L 264.214844 455.578125 " fill-opacity="1" fill-rule="nonzero"/><path fill="#5d5f60" d="M 264.214844 466.328125 L 45.972656 466.328125 L 45.972656 461.160156 L 264.214844 461.160156 L 264.214844 466.328125 " fill-opacity="1" fill-rule="nonzero"/><path fill="#5d5f60" d="M 264.214844 480.339844 L 45.972656 480.339844 L 45.972656 475.175781 L 264.214844 475.175781 L 264.214844 480.339844 " fill-opacity="1" fill-rule="nonzero"/><path fill="#5d5f60" d="M 264.214844 492.859375 L 45.972656 492.859375 L 45.972656 487.6875 L 264.214844 487.6875 L 264.214844 492.859375 " fill-opacity="1" fill-rule="nonzero"/><path fill="#5d5f60" d="M 264.214844 506.871094 L 45.972656 506.871094 L 45.972656 501.703125 L 264.214844 501.703125 L 264.214844 506.871094 " fill-opacity="1" fill-rule="nonzero"/><path fill="#5d5f60" d="M 264.214844 595.050781 L 45.972656 595.050781 L 45.972656 577.246094 L 264.214844 577.246094 L 264.214844 595.050781 " fill-opacity="1" fill-rule="nonzero"/><path fill="#5d5f60" d="M 264.214844 633.894531 L 45.972656 633.894531 L 45.972656 624.996094 L 264.214844 624.996094 L 264.214844 633.894531 " fill-opacity="1" fill-rule="nonzero"/><path fill="#5d5f60" d="M 264.214844 658.027344 L 45.972656 658.027344 L 45.972656 649.125 L 264.214844 649.125 L 264.214844 658.027344 " fill-opacity="1" fill-rule="nonzero"/><path fill="#5d5f60" d="M 264.214844 676.542969 L 45.972656 676.542969 L 45.972656 667.636719 L 264.214844 667.636719 L 264.214844 676.542969 " fill-opacity="1" fill-rule="nonzero"/><path fill="#5d5f60" d="M 264.214844 700.667969 L 45.972656 700.667969 L 45.972656 691.769531 L 264.214844 691.769531 L 264.214844 700.667969 " fill-opacity="1" fill-rule="nonzero"/><path fill="#5d5f60" d="M 264.214844 722.222656 L 45.972656 722.222656 L 45.972656 713.320312 L 264.214844 713.320312 L 264.214844 722.222656 " fill-opacity="1" fill-rule="nonzero"/><path fill="#5d5f60" d="M 264.214844 746.351562 L 45.972656 746.351562 L 45.972656 737.449219 L 264.214844 737.449219 L 264.214844 746.351562 " fill-opacity="1" fill-rule="nonzero"/><path fill="#ebc10d" d="M 533.707031 273.347656 L 315.46875 273.347656 L 315.46875 55.101562 L 533.707031 55.101562 L 533.707031 273.347656 " fill-opacity="1" fill-rule="nonzero"/><g clip-path="url(#id4)"><path fill="#838485" d="M 492.371094 90.269531 L 492.371094 0.0664062 L 594.714844 90.269531 Z M 492.371094 90.269531 " fill-opacity="1" fill-rule="nonzero"/></g></svg>