<svg xmlns="http://www.w3.org/2000/svg" xmlns:xlink="http://www.w3.org/1999/xlink" width="793" zoomAndPan="magnify" viewBox="0 0 594.95996 842.24997" height="1122" preserveAspectRatio="xMidYMid meet" version="1.0"><defs><clipPath id="id1"><path d="M 0.246094 0 L 594.675781 0 L 594.675781 841 L 0.246094 841 Z M 0.246094 0 " clip-rule="nonzero"/></clipPath><clipPath id="id2"><path d="M 0.246094 0 L 594.675781 0 L 594.675781 840.792969 L 0.246094 840.792969 Z M 0.246094 0 " clip-rule="nonzero"/></clipPath><clipPath id="id3"><path d="M 0.246094 0 L 594.675781 0 L 594.675781 747.953125 L 0.246094 747.953125 Z M 0.246094 0 " clip-rule="nonzero"/></clipPath></defs><g clip-path="url(#id1)"><path fill="#ffffff" d="M 0.246094 0 L 594.714844 0 L 594.714844 840.792969 L 0.246094 840.792969 Z M 0.246094 0 " fill-opacity="1" fill-rule="nonzero"/></g><g clip-path="url(#id2)"><path fill="#ffffff" d="M 0.246094 0 L 594.714844 0 L 594.714844 840.792969 L 0.246094 840.792969 Z M 0.246094 0 " fill-opacity="1" fill-rule="nonzero"/><path fill="#ffffff" d="M 0.246094 0 L 594.714844 0 L 594.714844 840.792969 L 0.246094 840.792969 Z M 0.246094 0 " fill-opacity="1" fill-rule="nonzero"/></g><path fill="#fbe2ae" d="M 588.441406 50.992188 L 588.441406 742.019531 L 74.507812 742.019531 L 74.507812 696.960938 L 520.453125 696.960938 L 520.453125 50.992188 Z M 588.441406 50.992188 " fill-opacity="1" fill-rule="nonzero"/><path fill="#e2ece1" d="M 520.453125 50.992188 L 520.453125 696.960938 L 6.515625 696.960938 L 6.515625 5.9375 L 520.453125 5.9375 Z M 520.453125 50.992188 " fill-opacity="1" fill-rule="nonzero"/><path fill="#f9b132" d="M 135.015625 629.351562 C 168.386719 629.351562 195.464844 602.460938 195.464844 569.277344 C 195.464844 536.09375 168.386719 509.203125 135.015625 509.203125 C 101.585938 509.203125 74.507812 536.09375 74.507812 569.277344 C 74.507812 602.460938 101.585938 629.351562 135.015625 629.351562 Z M 135.015625 479.105469 C 185.074219 479.105469 225.6875 519.472656 225.6875 569.277344 C 225.6875 619.019531 185.074219 659.386719 135.015625 659.386719 C 84.898438 659.386719 44.28125 619.019531 44.28125 569.277344 C 44.28125 519.472656 84.898438 479.105469 135.015625 479.105469 Z M 135.015625 479.105469 " fill-opacity="1" fill-rule="nonzero"/><path fill="#fbc88e" d="M 135.015625 509.203125 C 168.386719 509.203125 195.464844 536.09375 195.464844 569.277344 C 195.464844 602.460938 168.386719 629.351562 135.015625 629.351562 C 101.585938 629.351562 74.507812 602.460938 74.507812 569.277344 C 74.507812 536.09375 101.585938 509.203125 135.015625 509.203125 Z M 135.015625 509.203125 " fill-opacity="1" fill-rule="nonzero"/><path fill="#9c9d9c" d="M 142.558594 163.660156 C 132.460938 163.660156 122.425781 163.660156 112.332031 163.660156 L 82.109375 163.660156 C 86.027344 150.363281 98.378906 141.160156 112.332031 141.160156 C 126.285156 141.160156 138.636719 150.363281 142.558594 163.660156 Z M 142.558594 163.660156 " fill-opacity="1" fill-rule="nonzero"/><path fill="#f9b132" d="M 29.199219 111.066406 L 74.507812 111.066406 C 74.507812 123.53125 64.414062 133.621094 51.882812 133.621094 C 39.355469 133.621094 29.199219 123.53125 29.199219 111.066406 Z M 29.199219 111.066406 " fill-opacity="1" fill-rule="nonzero"/><path fill="#f9b132" d="M 195.464844 111.066406 C 195.464844 123.53125 185.3125 133.621094 172.78125 133.621094 C 160.253906 133.621094 150.097656 123.53125 150.097656 111.066406 Z M 195.464844 111.066406 " fill-opacity="1" fill-rule="nonzero"/><path fill="#be3a3c" d="M 126.464844 56.273438 C 124.328125 61.972656 118.804688 66.007812 112.332031 66.007812 C 105.859375 66.007812 100.277344 61.972656 98.140625 56.273438 C 97.546875 54.613281 97.191406 52.832031 97.191406 50.992188 C 97.191406 42.679688 103.960938 35.972656 112.332031 35.972656 C 120.644531 35.972656 127.414062 42.679688 127.414062 50.992188 C 127.414062 52.832031 127.058594 54.613281 126.464844 56.273438 Z M 126.464844 56.273438 " fill-opacity="1" fill-rule="nonzero"/><g clip-path="url(#id3)"><path fill="#3a322b" d="M 588.441406 45.066406 L 526.359375 45.066406 L 526.359375 5.9375 C 526.359375 2.660156 523.699219 0 520.421875 0 L 6.515625 0 C 3.238281 0 0.578125 2.660156 0.578125 5.9375 L 0.578125 696.949219 C 0.578125 700.226562 3.238281 702.886719 6.515625 702.886719 L 68.597656 702.886719 L 68.597656 742.019531 C 68.597656 745.292969 71.257812 747.953125 74.535156 747.953125 L 588.441406 747.953125 C 591.722656 747.953125 594.382812 745.292969 594.382812 742.019531 L 594.382812 51.003906 C 594.382812 47.726562 591.722656 45.066406 588.441406 45.066406 Z M 12.453125 11.871094 L 514.484375 11.871094 L 514.484375 691.015625 L 12.453125 691.015625 Z M 582.503906 736.082031 L 80.476562 736.082031 L 80.476562 702.886719 L 520.429688 702.886719 C 523.707031 702.886719 526.367188 700.226562 526.367188 696.949219 L 526.367188 56.9375 L 582.503906 56.9375 Z M 582.503906 736.082031 " fill-opacity="1" fill-rule="nonzero"/></g><path fill="#3a322b" d="M 80.476562 111.089844 C 80.476562 110.945312 80.402344 110.828125 80.390625 110.683594 C 80.367188 110.289062 80.265625 109.914062 80.160156 109.527344 C 80.054688 109.136719 79.941406 108.761719 79.757812 108.40625 C 79.691406 108.28125 79.691406 108.144531 79.621094 108.019531 L 60.648438 76.59375 L 95.585938 63.574219 C 98.269531 67.101562 102.023438 69.71875 106.386719 71.007812 L 106.386719 135.6875 C 92.355469 137.960938 80.464844 148.136719 76.394531 161.992188 C 75.867188 163.785156 76.21875 165.726562 77.339844 167.222656 C 78.457031 168.714844 80.21875 169.601562 82.089844 169.601562 L 142.550781 169.601562 C 144.421875 169.601562 146.183594 168.722656 147.300781 167.222656 C 148.421875 165.726562 148.773438 163.785156 148.246094 161.992188 C 144.179688 148.136719 132.285156 137.960938 118.257812 135.6875 L 118.257812 71.007812 C 122.617188 69.71875 126.375 67.101562 129.058594 63.574219 L 164 76.59375 L 145.027344 108.019531 C 144.957031 108.144531 144.949219 108.28125 144.890625 108.40625 C 144.707031 108.761719 144.601562 109.136719 144.488281 109.527344 C 144.378906 109.917969 144.277344 110.289062 144.253906 110.683594 C 144.242188 110.828125 144.171875 110.945312 144.171875 111.089844 C 144.171875 126.789062 157.011719 139.558594 172.78125 139.558594 C 188.554688 139.558594 201.390625 126.789062 201.390625 111.089844 C 201.390625 110.945312 201.320312 110.828125 201.308594 110.683594 C 201.285156 110.289062 201.183594 109.914062 201.074219 109.527344 C 200.96875 109.136719 200.855469 108.761719 200.671875 108.40625 C 200.605469 108.28125 200.605469 108.144531 200.535156 108.019531 L 177.863281 70.460938 C 177.726562 70.234375 177.507812 70.097656 177.347656 69.898438 C 177.128906 69.617188 176.914062 69.363281 176.648438 69.125 C 176.253906 68.78125 175.832031 68.527344 175.375 68.300781 C 175.1875 68.207031 175.054688 68.039062 174.855469 67.960938 L 133.226562 52.453125 C 133.265625 51.957031 133.375 51.496094 133.375 50.996094 C 133.375 39.4375 123.933594 30.035156 112.328125 30.035156 C 100.71875 30.035156 91.277344 39.4375 91.277344 50.996094 C 91.277344 51.496094 91.390625 51.964844 91.425781 52.453125 L 49.792969 67.960938 C 49.597656 68.035156 49.464844 68.199219 49.28125 68.296875 C 48.820312 68.527344 48.390625 68.78125 47.992188 69.132812 C 47.734375 69.363281 47.519531 69.617188 47.300781 69.890625 C 47.132812 70.105469 46.914062 70.242188 46.777344 70.46875 L 24.105469 108.027344 C 24.035156 108.148438 24.027344 108.285156 23.96875 108.410156 C 23.785156 108.769531 23.679688 109.140625 23.566406 109.535156 C 23.457031 109.925781 23.355469 110.292969 23.332031 110.691406 C 23.320312 110.828125 23.25 110.945312 23.25 111.089844 C 23.25 126.789062 36.082031 139.558594 51.859375 139.558594 C 67.636719 139.558594 80.476562 126.789062 80.476562 111.089844 Z M 172.78125 85.023438 L 184.9375 105.160156 L 160.625 105.160156 Z M 172.78125 127.6875 C 165.660156 127.6875 159.5625 123.25 157.152344 117.023438 L 188.410156 117.023438 C 186 123.257812 179.902344 127.6875 172.78125 127.6875 Z M 133.121094 157.730469 L 91.519531 157.730469 C 96.234375 151.199219 103.949219 147.066406 112.320312 147.066406 C 120.691406 147.066406 128.40625 151.207031 133.121094 157.730469 Z M 112.320312 41.914062 C 117.378906 41.914062 121.496094 45.992188 121.496094 51.003906 C 121.496094 56.011719 117.378906 60.089844 112.320312 60.089844 C 107.261719 60.089844 103.144531 56.011719 103.144531 51.003906 C 103.144531 45.992188 107.261719 41.914062 112.320312 41.914062 Z M 64.015625 105.152344 L 39.710938 105.152344 L 51.867188 85.015625 Z M 36.238281 117.023438 L 67.488281 117.023438 C 65.078125 123.25 58.980469 127.6875 51.859375 127.6875 C 44.746094 127.6875 38.648438 123.257812 36.238281 117.023438 Z M 36.238281 117.023438 " fill-opacity="1" fill-rule="nonzero"/><path fill="#3a322b" d="M 263.472656 79.472656 L 414.621094 79.472656 C 417.898438 79.472656 420.558594 76.8125 420.558594 73.535156 C 420.558594 70.261719 417.898438 67.601562 414.621094 67.601562 L 263.472656 67.601562 C 260.195312 67.601562 257.535156 70.261719 257.535156 73.535156 C 257.535156 76.8125 260.195312 79.472656 263.472656 79.472656 Z M 263.472656 79.472656 " fill-opacity="1" fill-rule="nonzero"/><path fill="#3a322b" d="M 240.800781 132.050781 L 475.085938 132.050781 C 478.363281 132.050781 481.023438 129.390625 481.023438 126.113281 C 481.023438 122.835938 478.363281 120.175781 475.085938 120.175781 L 240.800781 120.175781 C 237.523438 120.175781 234.863281 122.835938 234.863281 126.113281 C 234.863281 129.390625 237.519531 132.050781 240.800781 132.050781 Z M 240.800781 132.050781 " fill-opacity="1" fill-rule="nonzero"/><path fill="#3a322b" d="M 157.667969 210.3125 L 66.976562 210.3125 C 63.699219 210.3125 61.039062 212.972656 61.039062 216.246094 C 61.039062 219.523438 63.699219 222.183594 66.976562 222.183594 L 157.667969 222.183594 C 160.945312 222.183594 163.605469 219.523438 163.605469 216.246094 C 163.605469 212.972656 160.945312 210.3125 157.667969 210.3125 Z M 157.667969 210.3125 " fill-opacity="1" fill-rule="nonzero"/><path fill="#3a322b" d="M 98.824219 261.316406 C 98.824219 264.589844 101.484375 267.25 104.761719 267.25 L 459.960938 267.25 C 463.238281 267.25 465.898438 264.589844 465.898438 261.316406 C 465.898438 258.039062 463.238281 255.378906 459.960938 255.378906 L 104.761719 255.378906 C 101.484375 255.378906 98.824219 258.03125 98.824219 261.316406 Z M 98.824219 261.316406 " fill-opacity="1" fill-rule="nonzero"/><path fill="#3a322b" d="M 66.976562 327.335938 L 459.96875 327.335938 C 463.246094 327.335938 465.90625 324.675781 465.90625 321.402344 C 465.90625 318.125 463.246094 315.464844 459.96875 315.464844 L 66.976562 315.464844 C 63.699219 315.464844 61.039062 318.125 61.039062 321.402344 C 61.039062 324.675781 63.695312 327.335938 66.976562 327.335938 Z M 66.976562 327.335938 " fill-opacity="1" fill-rule="nonzero"/><path fill="#3a322b" d="M 66.976562 394.9375 L 459.96875 394.9375 C 463.246094 394.9375 465.90625 392.277344 465.90625 389 C 465.90625 385.722656 463.246094 383.066406 459.96875 383.066406 L 66.976562 383.066406 C 63.699219 383.066406 61.039062 385.722656 61.039062 389 C 61.039062 392.277344 63.695312 394.9375 66.976562 394.9375 Z M 66.976562 394.9375 " fill-opacity="1" fill-rule="nonzero"/><path fill="#3a322b" d="M 225.683594 455.023438 L 459.96875 455.023438 C 463.246094 455.023438 465.90625 452.363281 465.90625 449.085938 C 465.90625 445.808594 463.246094 443.152344 459.96875 443.152344 L 225.683594 443.152344 C 222.40625 443.152344 219.746094 445.808594 219.746094 449.085938 C 219.746094 452.363281 222.40625 455.023438 225.683594 455.023438 Z M 225.683594 455.023438 " fill-opacity="1" fill-rule="nonzero"/><path fill="#3a322b" d="M 231.621094 569.265625 C 231.621094 516.289062 188.273438 473.195312 134.992188 473.195312 C 81.710938 473.195312 38.367188 516.289062 38.367188 569.265625 C 38.367188 622.238281 81.714844 665.335938 134.992188 665.335938 C 188.273438 665.335938 231.621094 622.238281 231.621094 569.265625 Z M 50.246094 569.265625 C 50.246094 522.835938 88.265625 485.066406 134.992188 485.066406 C 181.722656 485.066406 219.746094 522.835938 219.746094 569.265625 C 219.746094 615.691406 181.722656 653.460938 134.992188 653.460938 C 88.265625 653.460938 50.246094 615.691406 50.246094 569.265625 Z M 50.246094 569.265625 " fill-opacity="1" fill-rule="nonzero"/><path fill="#3a322b" d="M 201.390625 569.265625 C 201.390625 532.859375 171.605469 503.238281 134.992188 503.238281 C 98.378906 503.238281 68.59375 532.859375 68.59375 569.265625 C 68.59375 605.671875 98.378906 635.292969 134.992188 635.292969 C 171.605469 635.292969 201.390625 605.671875 201.390625 569.265625 Z M 80.476562 569.265625 C 80.476562 539.40625 104.933594 515.109375 134.996094 515.109375 C 165.0625 515.109375 189.519531 539.398438 189.519531 569.265625 C 189.519531 599.128906 165.0625 623.417969 134.996094 623.417969 C 104.933594 623.417969 80.476562 599.125 80.476562 569.265625 Z M 80.476562 569.265625 " fill-opacity="1" fill-rule="nonzero"/><path fill="#3a322b" d="M 161.480469 542.175781 C 158.964844 540.070312 155.222656 540.402344 153.113281 542.914062 L 120.40625 581.925781 L 109.695312 565.957031 C 107.867188 563.234375 104.183594 562.496094 101.453125 564.335938 C 98.734375 566.164062 98.003906 569.851562 99.832031 572.578125 L 114.945312 595.109375 C 115.984375 596.660156 117.695312 597.632812 119.558594 597.726562 C 119.664062 597.734375 119.773438 597.734375 119.875 597.734375 C 121.625 597.734375 123.292969 596.960938 124.429688 595.613281 L 162.21875 550.546875 C 164.324219 548.03125 163.992188 544.285156 161.480469 542.175781 Z M 161.480469 542.175781 " fill-opacity="1" fill-rule="nonzero"/><path fill="#3a322b" d="M 472.9375 570.09375 C 466.046875 572.761719 458.929688 575.136719 451.773438 577.148438 C 444.121094 579.296875 436.3125 581.070312 428.449219 582.4375 C 429.136719 580.703125 429.71875 578.929688 430.1875 577.113281 C 431.703125 571.242188 433.78125 563.203125 429.035156 557.402344 C 424.210938 551.496094 414.726562 550.867188 400.835938 555.535156 C 390.492188 559.011719 381.824219 564.84375 374.875 570.925781 C 375.15625 565.679688 374.257812 560.609375 370.839844 557.054688 C 363.375 549.265625 349.457031 553.34375 327.949219 562.984375 C 305.492188 573.046875 283.289062 585.375 261.964844 599.632812 C 259.238281 601.457031 258.503906 605.140625 260.324219 607.867188 C 261.472656 609.582031 263.355469 610.503906 265.273438 610.503906 C 266.40625 610.503906 267.550781 610.175781 268.566406 609.5 C 289.34375 595.613281 310.960938 583.605469 332.8125 573.816406 C 357.246094 562.863281 361.527344 564.519531 362.277344 565.273438 C 362.375 565.382812 364.699219 568 360.855469 581.207031 C 359.347656 586.378906 356.730469 590.273438 355.316406 592.363281 C 351.878906 597.46875 353.625 600.441406 355.695312 602.042969 C 356.957031 603.011719 358.59375 603.445312 360.183594 603.226562 C 362.898438 602.84375 364.070312 601.265625 366.398438 598.125 C 371.382812 591.394531 384.636719 573.515625 404.625 566.789062 C 415.148438 563.25 419.359375 564.445312 419.832031 564.925781 C 420.734375 566.1875 419.191406 572.179688 418.679688 574.148438 C 417.539062 578.570312 415.46875 582.703125 412.535156 586.417969 C 411.042969 588.308594 410.84375 590.90625 412.019531 593.003906 C 413.195312 595.097656 415.515625 596.273438 417.914062 595.988281 C 430.414062 594.476562 442.882812 591.980469 454.984375 588.574219 C 462.507812 586.460938 469.992188 583.960938 477.230469 581.160156 C 480.289062 579.972656 481.808594 576.535156 480.621094 573.480469 C 479.433594 570.433594 475.996094 568.914062 472.9375 570.09375 Z M 472.9375 570.09375 " fill-opacity="1" fill-rule="nonzero"/><path fill="#3a322b" d="M 451.820312 615.933594 L 300.667969 630.957031 C 297.410156 631.285156 295.023438 634.1875 295.347656 637.453125 C 295.652344 640.515625 298.234375 642.800781 301.25 642.800781 C 301.445312 642.800781 301.640625 642.796875 301.84375 642.773438 L 452.996094 627.746094 C 456.257812 627.421875 458.644531 624.519531 458.316406 621.253906 C 457.992188 617.988281 455.097656 615.570312 451.820312 615.933594 Z M 451.820312 615.933594 " fill-opacity="1" fill-rule="nonzero"/></svg>