<svg xmlns="http://www.w3.org/2000/svg" xmlns:xlink="http://www.w3.org/1999/xlink" width="793" zoomAndPan="magnify" viewBox="0 0 594.95996 842.24997" height="1122" preserveAspectRatio="xMidYMid meet" version="1.0"><defs><clipPath id="id1"><path d="M 0.246094 0 L 594.675781 0 L 594.675781 841 L 0.246094 841 Z M 0.246094 0 " clip-rule="nonzero"/></clipPath><clipPath id="id2"><path d="M 0.246094 0 L 594.675781 0 L 594.675781 840.792969 L 0.246094 840.792969 Z M 0.246094 0 " clip-rule="nonzero"/></clipPath><clipPath id="id3"><path d="M 0.246094 0 L 594.675781 0 L 594.675781 804.105469 L 0.246094 804.105469 Z M 0.246094 0 " clip-rule="nonzero"/></clipPath><clipPath id="id4"><path d="M 0.246094 0 L 594 0 L 594 804.105469 L 0.246094 804.105469 Z M 0.246094 0 " clip-rule="nonzero"/></clipPath></defs><g clip-path="url(#id1)"><path fill="#ffffff" d="M 0.246094 0 L 594.714844 0 L 594.714844 840.792969 L 0.246094 840.792969 Z M 0.246094 0 " fill-opacity="1" fill-rule="nonzero"/></g><g clip-path="url(#id2)"><path fill="#ffffff" d="M 0.246094 0 L 594.714844 0 L 594.714844 840.792969 L 0.246094 840.792969 Z M 0.246094 0 " fill-opacity="1" fill-rule="nonzero"/><path fill="#ffffff" d="M 0.246094 0 L 594.714844 0 L 594.714844 840.792969 L 0.246094 840.792969 Z M 0.246094 0 " fill-opacity="1" fill-rule="nonzero"/></g><g clip-path="url(#id3)"><path fill="#000000" d="M 0.296875 0 L 594.660156 0 L 594.660156 804.105469 L 0.296875 804.105469 Z M 0.296875 0 " fill-opacity="1" fill-rule="nonzero"/></g><g clip-path="url(#id4)"><path fill="#e7e7e5" d="M 0.296875 804.105469 L 0.296875 0.765625 L 593.984375 0.765625 L 593.984375 804.105469 Z M 517.757812 439.558594 L 517.757812 415.835938 L 60.21875 415.835938 L 60.21875 439.558594 Z M 143.101562 562.871094 C 142.972656 562.488281 142.777344 562.132812 142.519531 561.816406 C 142.195312 561.492188 141.839844 561.335938 141.457031 561.335938 L 107.589844 560.175781 C 107.121094 560.191406 106.699219 560.316406 106.335938 560.558594 C 106.207031 560.625 106.109375 560.71875 106.050781 560.851562 C 105.726562 561.167969 105.566406 561.589844 105.566406 562.101562 L 106.238281 589.582031 C 106.238281 589.777344 106.277344 589.964844 106.335938 590.160156 L 106.335938 590.257812 C 110.066406 598.867188 116.144531 605.292969 124.570312 609.542969 C 124.828125 609.671875 125.121094 609.730469 125.4375 609.730469 C 125.574219 609.730469 125.730469 609.699219 125.921875 609.632812 C 125.988281 609.574219 126.117188 609.511719 126.3125 609.445312 C 134.289062 605.136719 139.980469 599.125 143.386719 591.410156 C 143.453125 591.351562 143.484375 591.285156 143.484375 591.222656 C 143.550781 591.089844 143.613281 590.96875 143.679688 590.832031 C 143.613281 590.710938 143.613281 590.574219 143.679688 590.449219 Z M 105.175781 557.570312 C 112.125 551.398438 120.101562 548.445312 129.109375 548.703125 C 138.246094 548.957031 145.769531 552.429688 151.6875 559.113281 C 157.671875 565.800781 160.273438 573.734375 159.503906 582.929688 C 158.667969 591.992188 154.738281 599.578125 147.726562 605.6875 C 140.785156 611.855469 132.8125 614.746094 123.800781 614.363281 C 114.734375 613.972656 107.273438 610.476562 101.414062 603.847656 C 95.566406 597.234375 93.054688 589.386719 93.890625 580.324219 C 94.53125 571.324219 98.292969 563.746094 105.175781 557.570312 Z M 125.632812 605.875 C 118.429688 602.019531 113.21875 596.359375 110 588.902344 L 109.328125 563.835938 L 139.339844 564.996094 L 139.910156 590.449219 C 136.890625 596.941406 132.132812 602.085938 125.632812 605.875 Z M 402.75 511.289062 L 402.847656 511.289062 C 404.195312 511.679688 405.222656 512.773438 405.929688 514.574219 C 408.953125 522.476562 406.964844 530.769531 399.953125 539.445312 C 395.574219 544.847656 389.625 550.019531 382.101562 554.96875 C 382.035156 553.808594 382.003906 552.589844 382.003906 551.300781 L 382.003906 551.210938 C 382.066406 545.683594 382.773438 540.09375 384.121094 534.429688 C 387.152344 522.21875 391.714844 514.761719 397.828125 512.066406 C 399.695312 511.289062 401.332031 511.03125 402.75 511.289062 Z M 453.019531 538.675781 C 444.335938 534.496094 433.367188 540.539062 420.117188 556.800781 C 413.167969 565.28125 408.441406 570.140625 405.929688 571.359375 L 406.027344 571.359375 C 403.585938 572.257812 400.207031 572.511719 395.898438 572.128906 C 389.980469 571.546875 386.050781 569.109375 384.121094 564.800781 C 383.933594 564.355469 383.777344 563.902344 383.640625 563.453125 C 393.355469 557.410156 400.851562 551.074219 406.125 544.460938 C 415.324219 533.019531 417.703125 522.058594 413.265625 511.582031 C 411.394531 506.949219 408.46875 504.253906 404.484375 503.484375 L 404.484375 503.574219 C 401.65625 502.808594 398.4375 503.160156 394.835938 504.636719 L 394.933594 504.636719 C 386.375 507.726562 380.203125 517.042969 376.402344 532.597656 C 374.925781 538.835938 374.128906 545.035156 373.992188 551.210938 L 373.992188 551.300781 C 374.058594 554.328125 374.285156 557.085938 374.667969 559.59375 C 366.113281 564.542969 356.433594 569.304688 345.625 573.867188 C 342.664062 574.699219 339.679688 574.667969 336.65625 573.769531 C 335.621094 573.445312 334.628906 573.542969 333.664062 574.058594 C 332.699219 574.636719 332.050781 575.441406 331.734375 576.46875 C 331.410156 577.5 331.507812 578.492188 332.019531 579.457031 C 332.601562 580.421875 333.40625 581.070312 334.429688 581.386719 C 339 582.734375 343.566406 582.734375 348.136719 581.386719 C 348.265625 581.324219 348.421875 581.289062 348.617188 581.289062 C 358.976562 576.851562 368.335938 572.285156 376.699219 567.601562 C 376.699219 567.660156 376.726562 567.730469 376.796875 567.789062 C 379.621094 575.058594 385.765625 579.140625 395.21875 580.039062 C 401.074219 580.550781 405.644531 580.105469 408.921875 578.691406 L 409.019531 578.691406 C 412.238281 577.53125 417.992188 571.910156 426.289062 561.816406 C 436.261719 549.597656 444.140625 544.296875 449.929688 545.910156 C 454.046875 548.347656 455.464844 552.175781 454.175781 557.378906 C 454.175781 557.507812 454.175781 557.605469 454.175781 557.667969 C 454.113281 557.863281 453.789062 559.179688 453.210938 561.621094 C 453.148438 561.679688 453.109375 561.75 453.109375 561.816406 C 452.726562 563.746094 453.019531 565.929688 453.984375 568.371094 L 453.984375 568.273438 C 456.042969 574.636719 461.765625 576.503906 471.15625 573.867188 L 471.15625 573.960938 C 475.144531 572.875 482.3125 569.71875 492.671875 564.511719 C 502.257812 559.753906 509.878906 556.515625 515.542969 554.773438 L 515.445312 554.773438 C 518.535156 553.808594 520.523438 553.878906 521.429688 554.96875 C 522.324219 557.222656 522.746094 558.894531 522.679688 559.980469 C 522.355469 560.753906 521.8125 561.394531 521.042969 561.90625 C 519.628906 562.9375 518.308594 563.835938 517.085938 564.613281 L 516.988281 564.710938 C 513.898438 566.824219 511.839844 569.5 510.816406 572.707031 C 509.140625 577.65625 510.105469 581.191406 513.710938 583.316406 C 515.058594 584.277344 517.53125 585.144531 521.132812 585.921875 C 523.320312 586.433594 524.867188 586.945312 525.769531 587.457031 L 525.867188 587.457031 C 526.183594 587.714844 526.351562 587.976562 526.351562 588.234375 C 526.09375 588.875 525.476562 589.550781 524.511719 590.257812 L 524.511719 590.351562 C 523.035156 591.449219 521.714844 592.246094 520.5625 592.761719 C 517.410156 593.921875 512.84375 594.371094 506.859375 594.117188 C 503.511719 593.980469 496.726562 593.339844 486.496094 592.1875 C 465.722656 589.9375 450.414062 590.257812 440.566406 593.152344 C 439.476562 593.40625 438.675781 594.019531 438.15625 594.980469 C 437.644531 595.945312 437.546875 596.941406 437.867188 597.972656 C 438.125 599.066406 438.734375 599.871094 439.699219 600.382812 C 440.664062 600.894531 441.667969 601.023438 442.695312 600.765625 C 451.890625 598.199219 466.203125 597.972656 485.628906 600.089844 C 496.117188 601.25 503.058594 601.917969 506.472656 602.117188 C 513.996094 602.371094 519.6875 601.695312 523.546875 600.089844 C 525.289062 599.320312 527.21875 598.160156 529.335938 596.617188 C 532.042969 594.566406 533.617188 592.375 534.070312 590.0625 C 535.035156 586.464844 533.8125 583.441406 530.398438 581.003906 C 528.988281 579.910156 526.472656 578.976562 522.875 578.207031 C 520.621094 577.695312 519.078125 577.214844 518.238281 576.761719 C 518.050781 576.4375 518.082031 575.925781 518.339844 575.21875 C 518.917969 573.671875 519.980469 572.324219 521.527344 571.164062 L 521.617188 571.164062 C 522.777344 570.328125 524.058594 569.460938 525.476562 568.566406 L 525.476562 568.46875 C 527.917969 566.796875 529.503906 564.738281 530.210938 562.300781 C 531.109375 560.046875 530.625 556.605469 528.761719 551.980469 C 526.894531 546.132812 521.683594 544.523438 513.128906 547.160156 C 507.144531 549.027344 499.167969 552.460938 489.203125 557.476562 C 479.488281 562.300781 472.761719 565.222656 469.03125 566.246094 C 465.042969 567.34375 462.503906 567.050781 461.410156 565.378906 L 461.410156 565.28125 C 461.085938 564.574219 460.929688 563.902344 460.929688 563.261719 C 461.449219 561.140625 461.765625 559.820312 461.894531 559.308594 L 461.894531 559.113281 L 461.992188 559.015625 C 464.175781 549.765625 461.34375 543.046875 453.503906 538.867188 C 453.308594 538.804688 453.148438 538.738281 453.019531 538.675781 Z M 90.703125 541.179688 C 79.125 551.722656 72.722656 564.613281 71.503906 579.84375 C 71.316406 582.035156 71.246094 584.179688 71.316406 586.304688 C 71.570312 598.710938 75.882812 609.671875 84.242188 619.183594 C 93.953125 630.242188 106.367188 636.117188 121.488281 636.824219 C 136.859375 637.472656 150.464844 632.613281 162.300781 622.265625 C 174.261719 611.789062 180.988281 598.839844 182.464844 583.414062 C 182.59375 581.289062 182.660156 579.230469 182.660156 577.242188 C 182.464844 564.386719 178.09375 553.109375 169.535156 543.398438 C 159.503906 532.085938 146.761719 526.269531 131.324219 525.945312 C 115.957031 525.496094 102.417969 530.570312 90.703125 541.179688 Z M 77.875 579.742188 C 78.90625 566.3125 84.527344 554.96875 94.757812 545.710938 C 105.046875 536.453125 116.949219 532.019531 130.457031 532.410156 C 144.164062 532.726562 155.449219 537.902344 164.328125 547.925781 C 173.199219 557.890625 177.058594 569.757812 175.90625 583.511719 C 174.617188 597.070312 168.730469 608.441406 158.242188 617.640625 C 147.828125 626.703125 135.894531 630.980469 122.453125 630.460938 C 108.945312 629.878906 97.847656 624.644531 89.164062 614.746094 C 80.480469 604.910156 76.710938 593.242188 77.875 579.742188 Z M 87.523438 580.421875 C 86.558594 591.222656 89.519531 600.511719 96.402344 608.285156 C 103.410156 616.125 112.253906 620.304688 122.9375 620.820312 C 133.804688 621.203125 143.425781 617.707031 151.785156 610.3125 C 160.210938 602.921875 164.9375 593.761719 165.964844 582.832031 C 166.867188 571.96875 163.816406 562.554688 156.796875 554.585938 C 149.785156 546.675781 140.847656 542.5625 129.976562 542.238281 C 119.105469 541.914062 109.488281 545.488281 101.128906 552.945312 C 92.898438 560.402344 88.359375 569.558594 87.523438 580.421875 Z M 517.757812 223.585938 L 517.757812 199.867188 L 60.21875 199.867188 L 60.21875 223.585938 Z M 517.757812 174.316406 L 517.757812 150.605469 L 60.21875 150.605469 L 60.21875 174.316406 Z M 517.757812 321.929688 L 517.757812 298.210938 L 60.21875 298.210938 L 60.21875 321.929688 Z M 426.773438 272.855469 L 426.773438 249.136719 L 60.40625 249.136719 L 60.40625 272.855469 Z M 60.503906 464.4375 L 60.503906 488.148438 L 192.59375 488.148438 L 192.59375 464.4375 Z M 457.070312 71.445312 C 454.5 69.003906 451.574219 67.136719 448.285156 65.847656 C 444.820312 64.4375 441.214844 63.730469 437.484375 63.730469 C 433.683594 63.730469 430.089844 64.4375 426.675781 65.847656 C 423.335938 67.136719 420.402344 69.003906 417.894531 71.445312 C 415.390625 73.886719 413.460938 76.777344 412.105469 80.121094 C 410.753906 83.398438 410.046875 86.9375 409.984375 90.726562 C 409.984375 94.457031 410.6875 97.988281 412.105469 101.332031 C 413.460938 104.679688 415.390625 107.53125 417.894531 109.914062 C 420.34375 112.355469 423.269531 114.25 426.675781 115.601562 C 430.148438 116.949219 433.753906 117.625 437.484375 117.625 C 441.214844 117.625 444.820312 116.949219 448.285156 115.601562 C 451.574219 114.25 454.5 112.324219 457.070312 109.816406 C 460.160156 106.863281 462.308594 103.164062 463.535156 98.726562 L 452.921875 95.449219 C 452.144531 98.148438 450.957031 100.4375 449.351562 102.296875 C 447.941406 103.96875 446.167969 105.257812 444.042969 106.15625 C 441.925781 106.992188 439.738281 107.40625 437.484375 107.40625 C 435.230469 107.40625 433.042969 106.992188 430.917969 106.15625 C 428.859375 105.257812 427.097656 103.96875 425.613281 102.296875 C 423.042969 99.277344 421.722656 95.421875 421.664062 90.726562 C 421.664062 86.035156 422.972656 82.179688 425.613281 79.15625 C 427.097656 77.484375 428.859375 76.199219 430.917969 75.300781 C 432.984375 74.40625 435.171875 73.953125 437.484375 73.953125 C 439.800781 73.953125 441.984375 74.367188 444.042969 75.203125 C 446.101562 76.105469 447.871094 77.386719 449.351562 79.058594 C 451.023438 80.929688 452.214844 83.242188 452.921875 86.003906 L 463.535156 82.628906 C 462.375 78.261719 460.21875 74.527344 457.070312 71.445312 Z M 495.957031 74.140625 L 513.710938 74.140625 L 513.710938 63.730469 L 467.011719 63.730469 L 467.011719 74.140625 L 484.664062 74.140625 L 484.664062 117.625 L 495.957031 117.625 Z M 361.742188 371.394531 L 361.742188 347.675781 L 60.21875 347.675781 L 60.21875 371.394531 Z M 108.167969 95.449219 C 107.398438 98.148438 106.179688 100.4375 104.503906 102.296875 C 103.15625 103.96875 101.414062 105.257812 99.296875 106.15625 C 97.171875 106.992188 94.984375 107.40625 92.730469 107.40625 C 90.484375 107.40625 88.289062 106.992188 86.171875 106.15625 C 84.113281 105.257812 82.34375 103.96875 80.867188 102.296875 C 78.226562 99.277344 76.910156 95.421875 76.910156 90.726562 C 76.910156 86.035156 78.226562 82.179688 80.867188 79.15625 C 82.34375 77.484375 84.113281 76.199219 86.171875 75.300781 C 88.230469 74.40625 90.417969 73.953125 92.730469 73.953125 C 94.984375 73.953125 97.171875 74.367188 99.296875 75.203125 C 101.355469 76.105469 103.089844 77.386719 104.503906 79.058594 C 106.238281 80.929688 107.460938 83.242188 108.167969 86.003906 L 118.78125 82.628906 C 117.5625 78.261719 115.40625 74.527344 112.320312 71.445312 C 109.742188 69.003906 106.820312 67.136719 103.539062 65.847656 C 100.003906 64.4375 96.402344 63.730469 92.730469 63.730469 C 88.9375 63.730469 85.335938 64.4375 81.929688 65.847656 C 78.582031 67.136719 75.621094 69.003906 73.046875 71.445312 C 70.605469 73.886719 68.707031 76.777344 67.359375 80.121094 C 66.007812 83.398438 65.300781 86.9375 65.230469 90.726562 C 65.230469 94.457031 65.941406 97.988281 67.359375 101.332031 C 68.707031 104.679688 70.605469 107.53125 73.046875 109.914062 C 75.558594 112.355469 78.515625 114.25 81.929688 115.601562 C 85.394531 116.949219 89 117.625 92.730469 117.625 C 96.460938 117.625 100.066406 116.949219 103.539062 115.601562 C 106.820312 114.25 109.742188 112.324219 112.320312 109.816406 C 115.40625 106.863281 117.5625 103.164062 118.78125 98.726562 Z M 163.648438 79.15625 C 166.355469 82.179688 167.675781 86.035156 167.605469 90.726562 C 167.605469 95.421875 166.289062 99.277344 163.648438 102.296875 C 162.238281 103.902344 160.496094 105.191406 158.441406 106.15625 C 156.3125 106.992188 154.128906 107.40625 151.882812 107.40625 C 149.695312 107.40625 147.539062 106.992188 145.414062 106.15625 C 143.289062 105.191406 141.523438 103.902344 140.109375 102.296875 C 137.46875 99.277344 136.148438 95.421875 136.148438 90.726562 C 136.148438 86.035156 137.46875 82.179688 140.109375 79.15625 C 141.585938 77.484375 143.355469 76.199219 145.414062 75.300781 C 147.410156 74.40625 149.558594 73.953125 151.882812 73.953125 C 154.195312 73.953125 156.382812 74.40625 158.441406 75.300781 C 160.496094 76.199219 162.238281 77.484375 163.648438 79.15625 Z M 177.253906 80.121094 C 175.90625 76.84375 174.007812 73.953125 171.5625 71.445312 C 169.054688 69.003906 166.097656 67.136719 162.683594 65.847656 C 159.277344 64.5 155.671875 63.828125 151.882812 63.828125 C 148.082031 63.828125 144.480469 64.5 141.074219 65.847656 C 137.726562 67.136719 134.800781 69.003906 132.289062 71.445312 C 129.847656 73.953125 127.917969 76.84375 126.5 80.121094 C 125.152344 83.464844 124.472656 87 124.472656 90.726562 C 124.472656 94.457031 125.152344 97.988281 126.5 101.332031 C 127.917969 104.679688 129.847656 107.53125 132.289062 109.914062 C 134.800781 112.355469 137.726562 114.25 141.074219 115.601562 C 144.546875 116.949219 148.152344 117.625 151.882812 117.625 C 155.671875 117.625 159.277344 116.949219 162.683594 115.601562 C 166.097656 114.25 169.054688 112.355469 171.5625 109.914062 C 174.074219 107.53125 175.964844 104.679688 177.253906 101.332031 C 178.671875 97.988281 179.382812 94.457031 179.382812 90.726562 C 179.382812 86.9375 178.671875 83.398438 177.253906 80.121094 Z M 227.527344 63.828125 L 227.527344 97.960938 L 195.105469 63.828125 L 189.511719 63.828125 L 189.511719 117.625 L 200.707031 117.625 L 200.707031 83.496094 L 233.121094 117.625 L 238.820312 117.625 L 238.820312 63.828125 Z M 293.425781 63.730469 L 246.726562 63.730469 L 246.726562 74.140625 L 264.386719 74.140625 L 264.386719 117.625 L 275.671875 117.625 L 275.671875 74.140625 L 293.425781 74.140625 Z M 344.855469 79.925781 C 344.855469 73.175781 342.152344 68.484375 336.753906 65.847656 C 333.980469 64.566406 331.25 63.890625 328.550781 63.828125 L 301.242188 63.828125 L 301.242188 117.625 L 312.433594 117.625 L 312.433594 95.835938 L 322.371094 95.835938 L 335.207031 117.625 L 347.75 117.625 L 334.429688 94.773438 C 337.328125 93.75 339.648438 92.273438 341.382812 90.34375 C 343.695312 87.640625 344.855469 84.167969 344.855469 79.925781 Z M 332.894531 83.203125 C 332.3125 83.980469 331.507812 84.558594 330.480469 84.941406 C 329.382812 85.457031 328.296875 85.710938 327.195312 85.710938 L 312.433594 85.710938 L 312.433594 74.238281 L 327.105469 74.238281 C 328.257812 74.238281 329.382812 74.464844 330.480469 74.917969 C 332.796875 75.882812 333.949219 77.554688 333.949219 79.925781 C 333.949219 81.34375 333.601562 82.433594 332.894531 83.203125 Z M 387.5 99.308594 L 370.425781 99.308594 L 378.914062 77.808594 Z M 373.417969 63.828125 L 351.996094 117.625 L 363.089844 117.625 L 366.371094 109.527344 L 391.457031 109.527344 L 394.734375 117.625 L 405.832031 117.625 L 384.515625 63.828125 L 373.417969 63.828125 " fill-opacity="1" fill-rule="evenodd"/></g><path fill="#969696" d="M 517.757812 439.558594 L 60.21875 439.558594 L 60.21875 415.835938 L 517.757812 415.835938 Z M 60.503906 464.4375 L 192.59375 464.4375 L 192.59375 488.148438 L 60.503906 488.148438 Z M 426.773438 272.855469 L 60.40625 272.855469 L 60.40625 249.136719 L 426.773438 249.136719 Z M 517.757812 321.929688 L 60.21875 321.929688 L 60.21875 298.210938 L 517.757812 298.210938 Z M 517.757812 174.316406 L 60.21875 174.316406 L 60.21875 150.605469 L 517.757812 150.605469 Z M 517.757812 223.585938 L 60.21875 223.585938 L 60.21875 199.867188 L 517.757812 199.867188 Z M 361.742188 371.394531 L 60.21875 371.394531 L 60.21875 347.675781 L 361.742188 347.675781 L 361.742188 371.394531 " fill-opacity="1" fill-rule="evenodd"/><path fill="#000000" d="M 125.632812 605.875 C 132.132812 602.085938 136.890625 596.941406 139.910156 590.449219 L 139.339844 564.996094 L 109.328125 563.835938 L 110 588.902344 C 113.21875 596.359375 118.429688 602.019531 125.632812 605.875 Z M 105.175781 557.570312 C 98.292969 563.746094 94.53125 571.324219 93.890625 580.324219 C 93.054688 589.386719 95.566406 597.234375 101.414062 603.847656 C 107.273438 610.476562 114.734375 613.972656 123.800781 614.363281 C 132.8125 614.746094 140.785156 611.855469 147.726562 605.6875 C 154.738281 599.578125 158.667969 591.992188 159.503906 582.929688 C 160.273438 573.734375 157.671875 565.800781 151.6875 559.113281 C 145.769531 552.429688 138.246094 548.957031 129.109375 548.703125 C 120.101562 548.445312 112.125 551.398438 105.175781 557.570312 Z M 143.101562 562.871094 L 143.679688 590.449219 C 143.613281 590.574219 143.613281 590.710938 143.679688 590.832031 C 143.613281 590.96875 143.550781 591.089844 143.484375 591.222656 C 143.484375 591.285156 143.453125 591.351562 143.386719 591.410156 C 139.980469 599.125 134.289062 605.136719 126.3125 609.445312 C 126.117188 609.511719 125.988281 609.574219 125.921875 609.632812 C 125.730469 609.699219 125.574219 609.730469 125.4375 609.730469 C 125.121094 609.730469 124.828125 609.671875 124.570312 609.542969 C 116.144531 605.292969 110.066406 598.867188 106.335938 590.257812 L 106.335938 590.160156 C 106.277344 589.964844 106.238281 589.777344 106.238281 589.582031 L 105.566406 562.101562 C 105.566406 561.589844 105.726562 561.167969 106.050781 560.851562 C 106.109375 560.71875 106.207031 560.625 106.335938 560.558594 C 106.699219 560.316406 107.121094 560.191406 107.589844 560.175781 L 141.457031 561.335938 C 141.839844 561.335938 142.195312 561.492188 142.519531 561.816406 C 142.777344 562.132812 142.972656 562.488281 143.101562 562.871094 Z M 453.019531 538.675781 C 453.148438 538.738281 453.308594 538.804688 453.503906 538.867188 C 461.34375 543.046875 464.175781 549.765625 461.992188 559.015625 L 461.894531 559.113281 L 461.894531 559.308594 C 461.765625 559.820312 461.449219 561.140625 460.929688 563.261719 C 460.929688 563.902344 461.085938 564.574219 461.410156 565.28125 L 461.410156 565.378906 C 462.503906 567.050781 465.042969 567.34375 469.03125 566.246094 C 472.761719 565.222656 479.488281 562.300781 489.203125 557.476562 C 499.167969 552.460938 507.144531 549.027344 513.128906 547.160156 C 521.683594 544.523438 526.894531 546.132812 528.761719 551.980469 C 530.625 556.605469 531.109375 560.046875 530.210938 562.300781 C 529.503906 564.738281 527.917969 566.796875 525.476562 568.46875 L 525.476562 568.566406 C 524.058594 569.460938 522.777344 570.328125 521.617188 571.164062 L 521.527344 571.164062 C 519.980469 572.324219 518.917969 573.671875 518.339844 575.21875 C 518.082031 575.925781 518.050781 576.4375 518.238281 576.761719 C 519.078125 577.214844 520.621094 577.695312 522.875 578.207031 C 526.472656 578.976562 528.988281 579.910156 530.398438 581.003906 C 533.8125 583.441406 535.035156 586.464844 534.070312 590.0625 C 533.617188 592.375 532.042969 594.566406 529.335938 596.617188 C 527.21875 598.160156 525.289062 599.320312 523.546875 600.089844 C 519.6875 601.695312 513.996094 602.371094 506.472656 602.117188 C 503.058594 601.917969 496.117188 601.25 485.628906 600.089844 C 466.203125 597.972656 451.890625 598.199219 442.695312 600.765625 C 441.667969 601.023438 440.664062 600.894531 439.699219 600.382812 C 438.734375 599.871094 438.125 599.066406 437.867188 597.972656 C 437.546875 596.941406 437.644531 595.945312 438.15625 594.980469 C 438.675781 594.019531 439.476562 593.40625 440.566406 593.152344 C 450.414062 590.257812 465.722656 589.9375 486.496094 592.1875 C 496.726562 593.339844 503.511719 593.980469 506.859375 594.117188 C 512.84375 594.371094 517.410156 593.921875 520.5625 592.761719 C 521.714844 592.246094 523.035156 591.449219 524.511719 590.351562 L 524.511719 590.257812 C 525.476562 589.550781 526.09375 588.875 526.351562 588.234375 C 526.351562 587.976562 526.183594 587.714844 525.867188 587.457031 L 525.769531 587.457031 C 524.867188 586.945312 523.320312 586.433594 521.132812 585.921875 C 517.53125 585.144531 515.058594 584.277344 513.710938 583.316406 C 510.105469 581.191406 509.140625 577.65625 510.816406 572.707031 C 511.839844 569.5 513.898438 566.824219 516.988281 564.710938 L 517.085938 564.613281 C 518.308594 563.835938 519.628906 562.9375 521.042969 561.90625 C 521.8125 561.394531 522.355469 560.753906 522.679688 559.980469 C 522.746094 558.894531 522.324219 557.222656 521.429688 554.96875 C 520.523438 553.878906 518.535156 553.808594 515.445312 554.773438 L 515.542969 554.773438 C 509.878906 556.515625 502.257812 559.753906 492.671875 564.511719 C 482.3125 569.71875 475.144531 572.875 471.15625 573.960938 L 471.15625 573.867188 C 461.765625 576.503906 456.042969 574.636719 453.984375 568.273438 L 453.984375 568.371094 C 453.019531 565.929688 452.726562 563.746094 453.109375 561.816406 C 453.109375 561.75 453.148438 561.679688 453.210938 561.621094 C 453.789062 559.179688 454.113281 557.863281 454.175781 557.667969 C 454.175781 557.605469 454.175781 557.507812 454.175781 557.378906 C 455.464844 552.175781 454.046875 548.347656 449.929688 545.910156 C 444.140625 544.296875 436.261719 549.597656 426.289062 561.816406 C 417.992188 571.910156 412.238281 577.53125 409.019531 578.691406 L 408.921875 578.691406 C 405.644531 580.105469 401.074219 580.550781 395.21875 580.039062 C 385.765625 579.140625 379.621094 575.058594 376.796875 567.789062 C 376.726562 567.730469 376.699219 567.660156 376.699219 567.601562 C 368.335938 572.285156 358.976562 576.851562 348.617188 581.289062 C 348.421875 581.289062 348.265625 581.324219 348.136719 581.386719 C 343.566406 582.734375 339 582.734375 334.429688 581.386719 C 333.40625 581.070312 332.601562 580.421875 332.019531 579.457031 C 331.507812 578.492188 331.410156 577.5 331.734375 576.46875 C 332.050781 575.441406 332.699219 574.636719 333.664062 574.058594 C 334.628906 573.542969 335.621094 573.445312 336.65625 573.769531 C 339.679688 574.667969 342.664062 574.699219 345.625 573.867188 C 356.433594 569.304688 366.113281 564.542969 374.667969 559.59375 C 374.285156 557.085938 374.058594 554.328125 373.992188 551.300781 L 373.992188 551.210938 C 374.128906 545.035156 374.925781 538.835938 376.402344 532.597656 C 380.203125 517.042969 386.375 507.726562 394.933594 504.636719 L 394.835938 504.636719 C 398.4375 503.160156 401.65625 502.808594 404.484375 503.574219 L 404.484375 503.484375 C 408.46875 504.253906 411.394531 506.949219 413.265625 511.582031 C 417.703125 522.058594 415.324219 533.019531 406.125 544.460938 C 400.851562 551.074219 393.355469 557.410156 383.640625 563.453125 C 383.777344 563.902344 383.933594 564.355469 384.121094 564.800781 C 386.050781 569.109375 389.980469 571.546875 395.898438 572.128906 C 400.207031 572.511719 403.585938 572.257812 406.027344 571.359375 L 405.929688 571.359375 C 408.441406 570.140625 413.167969 565.28125 420.117188 556.800781 C 433.367188 540.539062 444.335938 534.496094 453.019531 538.675781 Z M 402.75 511.289062 C 401.332031 511.03125 399.695312 511.289062 397.828125 512.066406 C 391.714844 514.761719 387.152344 522.21875 384.121094 534.429688 C 382.773438 540.09375 382.066406 545.683594 382.003906 551.210938 L 382.003906 551.300781 C 382.003906 552.589844 382.035156 553.808594 382.101562 554.96875 C 389.625 550.019531 395.574219 544.847656 399.953125 539.445312 C 406.964844 530.769531 408.953125 522.476562 405.929688 514.574219 C 405.222656 512.773438 404.195312 511.679688 402.847656 511.289062 Z M 87.523438 580.421875 C 88.359375 569.558594 92.898438 560.402344 101.128906 552.945312 C 109.488281 545.488281 119.105469 541.914062 129.976562 542.238281 C 140.847656 542.5625 149.785156 546.675781 156.796875 554.585938 C 163.816406 562.554688 166.867188 571.96875 165.964844 582.832031 C 164.9375 593.761719 160.210938 602.921875 151.785156 610.3125 C 143.425781 617.707031 133.804688 621.203125 122.9375 620.820312 C 112.253906 620.304688 103.410156 616.125 96.402344 608.285156 C 89.519531 600.511719 86.558594 591.222656 87.523438 580.421875 Z M 77.875 579.742188 C 76.710938 593.242188 80.480469 604.910156 89.164062 614.746094 C 97.847656 624.644531 108.945312 629.878906 122.453125 630.460938 C 135.894531 630.980469 147.828125 626.703125 158.242188 617.640625 C 168.730469 608.441406 174.617188 597.070312 175.90625 583.511719 C 177.058594 569.757812 173.199219 557.890625 164.328125 547.925781 C 155.449219 537.902344 144.164062 532.726562 130.457031 532.410156 C 116.949219 532.019531 105.046875 536.453125 94.757812 545.710938 C 84.527344 554.96875 78.90625 566.3125 77.875 579.742188 Z M 90.703125 541.179688 C 102.417969 530.570312 115.957031 525.496094 131.324219 525.945312 C 146.761719 526.269531 159.503906 532.085938 169.535156 543.398438 C 178.09375 553.109375 182.464844 564.386719 182.660156 577.242188 C 182.660156 579.230469 182.59375 581.289062 182.464844 583.414062 C 180.988281 598.839844 174.261719 611.789062 162.300781 622.265625 C 150.464844 632.613281 136.859375 637.472656 121.488281 636.824219 C 106.367188 636.117188 93.953125 630.242188 84.242188 619.183594 C 75.882812 609.671875 71.570312 598.710938 71.316406 586.304688 C 71.246094 584.179688 71.316406 582.035156 71.503906 579.84375 C 72.722656 564.613281 79.125 551.722656 90.703125 541.179688 " fill-opacity="1" fill-rule="evenodd"/><path fill="#000000" d="M 495.957031 74.140625 L 495.957031 117.625 L 484.664062 117.625 L 484.664062 74.140625 L 467.011719 74.140625 L 467.011719 63.730469 L 513.710938 63.730469 L 513.710938 74.140625 Z M 457.070312 71.445312 C 460.21875 74.527344 462.375 78.261719 463.535156 82.628906 L 452.921875 86.003906 C 452.214844 83.242188 451.023438 80.929688 449.351562 79.058594 C 447.871094 77.386719 446.101562 76.105469 444.042969 75.203125 C 441.984375 74.367188 439.800781 73.953125 437.484375 73.953125 C 435.171875 73.953125 432.984375 74.40625 430.917969 75.300781 C 428.859375 76.199219 427.097656 77.484375 425.613281 79.15625 C 422.972656 82.179688 421.664062 86.035156 421.664062 90.726562 C 421.722656 95.421875 423.042969 99.277344 425.613281 102.296875 C 427.097656 103.96875 428.859375 105.257812 430.917969 106.15625 C 433.042969 106.992188 435.230469 107.40625 437.484375 107.40625 C 439.738281 107.40625 441.925781 106.992188 444.042969 106.15625 C 446.167969 105.257812 447.941406 103.96875 449.351562 102.296875 C 450.957031 100.4375 452.144531 98.148438 452.921875 95.449219 L 463.535156 98.726562 C 462.308594 103.164062 460.160156 106.863281 457.070312 109.816406 C 454.5 112.324219 451.574219 114.25 448.285156 115.601562 C 444.820312 116.949219 441.214844 117.625 437.484375 117.625 C 433.753906 117.625 430.148438 116.949219 426.675781 115.601562 C 423.269531 114.25 420.34375 112.355469 417.894531 109.914062 C 415.390625 107.53125 413.460938 104.679688 412.105469 101.332031 C 410.6875 97.988281 409.984375 94.457031 409.984375 90.726562 C 410.046875 86.9375 410.753906 83.398438 412.105469 80.121094 C 413.460938 76.777344 415.390625 73.886719 417.894531 71.445312 C 420.402344 69.003906 423.335938 67.136719 426.675781 65.847656 C 430.089844 64.4375 433.683594 63.730469 437.484375 63.730469 C 441.214844 63.730469 444.820312 64.4375 448.285156 65.847656 C 451.574219 67.136719 454.5 69.003906 457.070312 71.445312 Z M 373.417969 63.828125 L 384.515625 63.828125 L 405.832031 117.625 L 394.734375 117.625 L 391.457031 109.527344 L 366.371094 109.527344 L 363.089844 117.625 L 351.996094 117.625 Z M 387.5 99.308594 L 378.914062 77.808594 L 370.425781 99.308594 Z M 332.894531 83.203125 C 333.601562 82.433594 333.949219 81.34375 333.949219 79.925781 C 333.949219 77.554688 332.796875 75.882812 330.480469 74.917969 C 329.382812 74.464844 328.257812 74.238281 327.105469 74.238281 L 312.433594 74.238281 L 312.433594 85.710938 L 327.195312 85.710938 C 328.296875 85.710938 329.382812 85.457031 330.480469 84.941406 C 331.507812 84.558594 332.3125 83.980469 332.894531 83.203125 Z M 344.855469 79.925781 C 344.855469 84.167969 343.695312 87.640625 341.382812 90.34375 C 339.648438 92.273438 337.328125 93.75 334.429688 94.773438 L 347.75 117.625 L 335.207031 117.625 L 322.371094 95.835938 L 312.433594 95.835938 L 312.433594 117.625 L 301.242188 117.625 L 301.242188 63.828125 L 328.550781 63.828125 C 331.25 63.890625 333.980469 64.566406 336.753906 65.847656 C 342.152344 68.484375 344.855469 73.175781 344.855469 79.925781 Z M 293.425781 63.730469 L 293.425781 74.140625 L 275.671875 74.140625 L 275.671875 117.625 L 264.386719 117.625 L 264.386719 74.140625 L 246.726562 74.140625 L 246.726562 63.730469 Z M 227.527344 63.828125 L 238.820312 63.828125 L 238.820312 117.625 L 233.121094 117.625 L 200.707031 83.496094 L 200.707031 117.625 L 189.511719 117.625 L 189.511719 63.828125 L 195.105469 63.828125 L 227.527344 97.960938 Z M 177.253906 80.121094 C 178.671875 83.398438 179.382812 86.9375 179.382812 90.726562 C 179.382812 94.457031 178.671875 97.988281 177.253906 101.332031 C 175.964844 104.679688 174.074219 107.53125 171.5625 109.914062 C 169.054688 112.355469 166.097656 114.25 162.683594 115.601562 C 159.277344 116.949219 155.671875 117.625 151.882812 117.625 C 148.152344 117.625 144.546875 116.949219 141.074219 115.601562 C 137.726562 114.25 134.800781 112.355469 132.289062 109.914062 C 129.847656 107.53125 127.917969 104.679688 126.5 101.332031 C 125.152344 97.988281 124.472656 94.457031 124.472656 90.726562 C 124.472656 87 125.152344 83.464844 126.5 80.121094 C 127.917969 76.84375 129.847656 73.953125 132.289062 71.445312 C 134.800781 69.003906 137.726562 67.136719 141.074219 65.847656 C 144.480469 64.5 148.082031 63.828125 151.882812 63.828125 C 155.671875 63.828125 159.277344 64.5 162.683594 65.847656 C 166.097656 67.136719 169.054688 69.003906 171.5625 71.445312 C 174.007812 73.953125 175.90625 76.84375 177.253906 80.121094 Z M 163.648438 79.15625 C 162.238281 77.484375 160.496094 76.199219 158.441406 75.300781 C 156.382812 74.40625 154.195312 73.953125 151.882812 73.953125 C 149.558594 73.953125 147.410156 74.40625 145.414062 75.300781 C 143.355469 76.199219 141.585938 77.484375 140.109375 79.15625 C 137.46875 82.179688 136.148438 86.035156 136.148438 90.726562 C 136.148438 95.421875 137.46875 99.277344 140.109375 102.296875 C 141.523438 103.902344 143.289062 105.191406 145.414062 106.15625 C 147.539062 106.992188 149.695312 107.40625 151.882812 107.40625 C 154.128906 107.40625 156.3125 106.992188 158.441406 106.15625 C 160.496094 105.191406 162.238281 103.902344 163.648438 102.296875 C 166.289062 99.277344 167.605469 95.421875 167.605469 90.726562 C 167.675781 86.035156 166.355469 82.179688 163.648438 79.15625 Z M 108.167969 95.449219 L 118.78125 98.726562 C 117.5625 103.164062 115.40625 106.863281 112.320312 109.816406 C 109.742188 112.324219 106.820312 114.25 103.539062 115.601562 C 100.066406 116.949219 96.460938 117.625 92.730469 117.625 C 89 117.625 85.394531 116.949219 81.929688 115.601562 C 78.515625 114.25 75.558594 112.355469 73.046875 109.914062 C 70.605469 107.53125 68.707031 104.679688 67.359375 101.332031 C 65.941406 97.988281 65.230469 94.457031 65.230469 90.726562 C 65.300781 86.9375 66.007812 83.398438 67.359375 80.121094 C 68.707031 76.777344 70.605469 73.886719 73.046875 71.445312 C 75.621094 69.003906 78.582031 67.136719 81.929688 65.847656 C 85.335938 64.4375 88.9375 63.730469 92.730469 63.730469 C 96.402344 63.730469 100.003906 64.4375 103.539062 65.847656 C 106.820312 67.136719 109.742188 69.003906 112.320312 71.445312 C 115.40625 74.527344 117.5625 78.261719 118.78125 82.628906 L 108.167969 86.003906 C 107.460938 83.242188 106.238281 80.929688 104.503906 79.058594 C 103.089844 77.386719 101.355469 76.105469 99.296875 75.203125 C 97.171875 74.367188 94.984375 73.953125 92.730469 73.953125 C 90.417969 73.953125 88.230469 74.40625 86.171875 75.300781 C 84.113281 76.199219 82.34375 77.484375 80.867188 79.15625 C 78.226562 82.179688 76.910156 86.035156 76.910156 90.726562 C 76.910156 95.421875 78.226562 99.277344 80.867188 102.296875 C 82.34375 103.96875 84.113281 105.257812 86.171875 106.15625 C 88.289062 106.992188 90.484375 107.40625 92.730469 107.40625 C 94.984375 107.40625 97.171875 106.992188 99.296875 106.15625 C 101.414062 105.257812 103.15625 103.96875 104.503906 102.296875 C 106.179688 100.4375 107.398438 98.148438 108.167969 95.449219 " fill-opacity="1" fill-rule="evenodd"/></svg>