<svg xmlns="http://www.w3.org/2000/svg" xmlns:xlink="http://www.w3.org/1999/xlink" width="1920" zoomAndPan="magnify" viewBox="0 0 1440 809.999993" height="1080" preserveAspectRatio="xMidYMid meet" version="1.0"><defs><clipPath id="id1"><path d="M 1 0 L 1440 0 L 1440 748.5 L 1 748.5 Z M 1 0 " clip-rule="nonzero"/></clipPath></defs><rect x="-144" width="1728" fill="#ffffff" y="-80.999999" height="971.999992" fill-opacity="1"/><rect x="-144" width="1728" fill="#ffffff" y="-80.999999" height="971.999992" fill-opacity="1"/><rect x="-144" width="1728" fill="#ffffff" y="-80.999999" height="971.999992" fill-opacity="1"/><rect x="-144" width="1728" fill="#ffffff" y="-80.999999" height="971.999992" fill-opacity="1"/><g clip-path="url(#id1)"><path fill="#ababab" d="M 1.398438 -0.0078125 L 1439.066406 -0.0078125 L 1439.066406 748.492188 L 1.398438 748.492188 L 1.398438 -0.0078125 " fill-opacity="1" fill-rule="evenodd"/></g><path fill="#969696" d="M 58.832031 43.972656 L 58.832031 704.53125 L 1395.085938 704.53125 L 1395.085938 43.972656 Z M 44.800781 29.933594 L 1409.117188 29.933594 L 1409.117188 718.554688 L 44.800781 718.554688 L 44.800781 29.933594 " fill-opacity="1" fill-rule="evenodd"/><path fill="#ffffff" d="M 1319.265625 667.738281 L 929.894531 667.738281 L 929.894531 637.800781 L 1319.265625 637.800781 L 1319.265625 667.738281 " fill-opacity="1" fill-rule="evenodd"/><path fill="#ffffff" d="M 480.621094 149.703125 L 121.199219 149.703125 L 121.199219 119.765625 L 480.621094 119.765625 L 480.621094 149.703125 " fill-opacity="1" fill-rule="evenodd"/><path fill="#ffffff" d="M 540.523438 239.519531 L 121.199219 239.519531 L 121.199219 209.582031 L 540.523438 209.582031 L 540.523438 239.519531 " fill-opacity="1" fill-rule="evenodd"/><path fill="#ffffff" d="M 1319.265625 479.042969 L 121.199219 479.042969 L 121.199219 464.074219 L 1319.265625 464.074219 L 1319.265625 479.042969 " fill-opacity="1" fill-rule="evenodd"/><path fill="#969696" d="M 899.945312 299.398438 L 899.945312 119.765625 L 1319.265625 119.765625 L 1319.265625 299.398438 L 899.945312 299.398438 " fill-opacity="1" fill-rule="evenodd"/><path fill="#ffffff" d="M 1013.363281 144.023438 L 1074.480469 179.015625 L 1074.863281 179.277344 C 1076.144531 180.3125 1077.164062 181.589844 1077.863281 183.023438 C 1078.566406 184.453125 1078.945312 186.054688 1078.976562 187.710938 L 1078.976562 187.742188 L 1079.007812 190.957031 L 1079.007812 191.0625 L 1079.023438 191.0625 C 1079.023438 194.0625 1077.820312 196.789062 1075.882812 198.769531 C 1073.933594 200.761719 1071.238281 202.011719 1068.25 202.042969 L 1068.144531 202.042969 L 1068.144531 202.058594 L 945.449219 202.058594 C 942.445312 202.058594 939.71875 200.808594 937.738281 198.8125 C 935.773438 196.820312 934.570312 194.09375 934.570312 191.078125 L 934.570312 187.851562 C 934.570312 186.191406 934.953125 184.558594 935.652344 183.082031 C 936.367188 181.605469 937.390625 180.296875 938.683594 179.261719 L 939.09375 178.988281 L 1000.277344 144.039062 C 1001.207031 143.324219 1002.210938 142.789062 1003.246094 142.425781 C 1004.421875 142.011719 1005.640625 141.800781 1006.84375 141.800781 C 1008.0625 141.800781 1009.265625 142.011719 1010.4375 142.425781 C 1011.472656 142.789062 1012.464844 143.324219 1013.363281 144.023438 " fill-opacity="1" fill-rule="nonzero"/><path fill="#ffffff" d="M 937.542969 265.300781 L 1076.15625 265.300781 C 1079.480469 265.300781 1082.175781 267.996094 1082.175781 271.332031 C 1082.175781 274.652344 1079.480469 277.347656 1076.15625 277.347656 L 937.542969 277.347656 C 934.21875 277.347656 931.523438 274.652344 931.523438 271.332031 C 931.523438 267.996094 934.21875 265.300781 937.542969 265.300781 " fill-opacity="1" fill-rule="evenodd"/><path fill="#ffffff" d="M 1067.109375 213.007812 L 1067.109375 257.351562 C 1067.109375 260.078125 1064.414062 262.285156 1061.089844 262.285156 C 1057.753906 262.285156 1055.058594 260.078125 1055.058594 257.351562 L 1055.058594 213.007812 C 1055.058594 210.28125 1057.753906 208.074219 1061.089844 208.074219 C 1064.414062 208.074219 1067.109375 210.28125 1067.109375 213.007812 " fill-opacity="1" fill-rule="evenodd"/><path fill="#ffffff" d="M 958.640625 213.007812 L 958.640625 257.351562 C 958.640625 260.078125 955.945312 262.285156 952.609375 262.285156 C 949.289062 262.285156 946.589844 260.078125 946.589844 257.351562 L 946.589844 213.007812 C 946.589844 210.28125 949.289062 208.074219 952.609375 208.074219 C 955.945312 208.074219 958.640625 210.28125 958.640625 213.007812 " fill-opacity="1" fill-rule="evenodd"/><path fill="#ffffff" d="M 1012.875 213.007812 L 1012.875 257.351562 C 1012.875 260.078125 1010.179688 262.285156 1006.859375 262.285156 C 1003.519531 262.285156 1000.824219 260.078125 1000.824219 257.351562 L 1000.824219 213.007812 C 1000.824219 210.28125 1003.519531 208.074219 1006.859375 208.074219 C 1010.179688 208.074219 1012.875 210.28125 1012.875 213.007812 " fill-opacity="1" fill-rule="evenodd"/><path fill="#ffffff" d="M 1287.699219 259.621094 L 1104.296875 259.621094 L 1104.296875 251.730469 L 1287.699219 251.730469 L 1287.699219 259.621094 " fill-opacity="1" fill-rule="evenodd"/><path fill="#ffffff" d="M 1287.699219 227.71875 L 1104.296875 227.71875 L 1104.296875 219.828125 L 1287.699219 219.828125 L 1287.699219 227.71875 " fill-opacity="1" fill-rule="evenodd"/><path fill="#ffffff" d="M 1287.699219 195.800781 L 1104.296875 195.800781 L 1104.296875 187.910156 L 1287.699219 187.910156 L 1287.699219 195.800781 " fill-opacity="1" fill-rule="evenodd"/></svg>