<svg xmlns="http://www.w3.org/2000/svg" xmlns:xlink="http://www.w3.org/1999/xlink" width="793" zoomAndPan="magnify" viewBox="0 0 594.95996 842.24997" height="1122" preserveAspectRatio="xMidYMid meet" version="1.0"><defs><clipPath id="id1"><path d="M 0.246094 0 L 594.675781 0 L 594.675781 841 L 0.246094 841 Z M 0.246094 0 " clip-rule="nonzero"/></clipPath><clipPath id="id2"><path d="M 0.246094 0 L 594.675781 0 L 594.675781 840.792969 L 0.246094 840.792969 Z M 0.246094 0 " clip-rule="nonzero"/></clipPath><clipPath id="id3"><path d="M 0.246094 0 L 534 0 L 534 694 L 0.246094 694 Z M 0.246094 0 " clip-rule="nonzero"/></clipPath><clipPath id="id4"><path d="M 4.367188 6.292969 L 586.015625 6.292969 L 586.015625 742.050781 L 4.367188 742.050781 Z M 4.367188 6.292969 " clip-rule="nonzero"/></clipPath><clipPath id="id5"><path d="M 426.042969 582.132812 L 586.015625 582.132812 L 586.015625 742.050781 L 426.042969 742.050781 Z M 426.042969 582.132812 " clip-rule="nonzero"/></clipPath></defs><g clip-path="url(#id1)"><path fill="#ffffff" d="M 0.246094 0 L 594.714844 0 L 594.714844 840.792969 L 0.246094 840.792969 Z M 0.246094 0 " fill-opacity="1" fill-rule="nonzero"/></g><g clip-path="url(#id2)"><path fill="#ffffff" d="M 0.246094 0 L 594.714844 0 L 594.714844 840.792969 L 0.246094 840.792969 Z M 0.246094 0 " fill-opacity="1" fill-rule="nonzero"/><path fill="#ffffff" d="M 0.246094 0 L 594.714844 0 L 594.714844 840.792969 L 0.246094 840.792969 Z M 0.246094 0 " fill-opacity="1" fill-rule="nonzero"/></g><g clip-path="url(#id3)"><path fill="#fdfdfd" d="M -29.648438 -42.578125 L 514.691406 -42.578125 C 525.0625 -42.578125 533.496094 -34.152344 533.496094 -24.105469 L 533.496094 674.636719 C 533.496094 684.6875 525.0625 693.113281 514.691406 693.113281 L -29.648438 693.113281 C -39.699219 693.113281 -48.128906 684.6875 -48.128906 674.636719 L -48.128906 -24.105469 C -48.128906 -34.152344 -39.699219 -42.578125 -29.648438 -42.578125 " fill-opacity="1" fill-rule="evenodd"/><path fill="#fdfdfd" d="M 533.496094 -4.332031 L 533.496094 674.640625 C 533.496094 684.6875 525.0625 693.113281 514.6875 693.113281 L -17.980469 693.113281 L -17.980469 4.09375 C -17.980469 -0.441406 -14.089844 -4.332031 -9.550781 -4.332031 L 533.496094 -4.332031 " fill-opacity="1" fill-rule="evenodd"/></g><g clip-path="url(#id4)"><path fill="#fdf1db" d="M 12.820312 6.359375 L 577.589844 6.359375 C 582.128906 6.359375 586.015625 9.925781 586.015625 14.785156 L 586.015625 733.625 C 586.015625 738.160156 582.128906 742.050781 577.589844 742.050781 L 12.820312 742.050781 C 8.28125 742.050781 4.390625 738.160156 4.390625 733.625 L 4.390625 14.785156 C 4.390625 9.925781 8.28125 6.359375 12.820312 6.359375 " fill-opacity="1" fill-rule="evenodd"/></g><path fill="#8ea79c" d="M 103.597656 653.574219 L 486.808594 653.574219 L 486.808594 671.722656 L 103.597656 671.722656 Z M 103.597656 620.191406 C 231.332031 620.191406 359.070312 620.191406 486.808594 620.191406 C 486.808594 626.351562 486.808594 632.183594 486.808594 638.339844 C 359.070312 638.339844 231.332031 638.339844 103.597656 638.339844 C 103.597656 632.183594 103.597656 626.351562 103.597656 620.191406 Z M 103.597656 586.8125 C 231.332031 586.8125 359.070312 586.8125 486.808594 586.8125 C 486.808594 592.96875 486.808594 599.128906 486.808594 604.960938 C 359.070312 604.960938 231.332031 604.960938 103.597656 604.960938 C 103.597656 599.128906 103.597656 592.96875 103.597656 586.8125 Z M 103.597656 553.753906 C 231.332031 553.753906 359.070312 553.753906 486.808594 553.753906 C 486.808594 559.585938 486.808594 565.746094 486.808594 571.902344 C 359.070312 571.902344 231.332031 571.902344 103.597656 571.902344 C 103.597656 565.746094 103.597656 559.585938 103.597656 553.753906 Z M 103.597656 520.371094 C 231.332031 520.371094 359.070312 520.371094 486.808594 520.371094 C 486.808594 526.53125 486.808594 532.363281 486.808594 538.523438 C 359.070312 538.523438 231.332031 538.523438 103.597656 538.523438 C 103.597656 532.363281 103.597656 526.53125 103.597656 520.371094 Z M 103.597656 486.992188 C 231.332031 486.992188 359.070312 486.992188 486.808594 486.992188 C 486.808594 493.148438 486.808594 499.304688 486.808594 505.464844 C 359.070312 505.464844 231.332031 505.464844 103.597656 505.464844 C 103.597656 499.304688 103.597656 493.148438 103.597656 486.992188 Z M 103.597656 453.933594 C 231.332031 453.933594 359.070312 453.933594 486.808594 453.933594 C 486.808594 460.089844 486.808594 465.925781 486.808594 472.082031 C 359.070312 472.082031 231.332031 472.082031 103.597656 472.082031 C 103.597656 465.925781 103.597656 460.089844 103.597656 453.933594 Z M 103.597656 420.550781 C 231.332031 420.550781 359.070312 420.550781 486.808594 420.550781 C 486.808594 426.710938 486.808594 432.867188 486.808594 438.703125 C 359.070312 438.703125 231.332031 438.703125 103.597656 438.703125 C 103.597656 432.867188 103.597656 426.710938 103.597656 420.550781 Z M 103.597656 387.492188 C 231.332031 387.492188 359.070312 387.492188 486.808594 387.492188 C 486.808594 393.328125 486.808594 399.484375 486.808594 405.644531 C 359.070312 405.644531 231.332031 405.644531 103.597656 405.644531 C 103.597656 399.484375 103.597656 393.328125 103.597656 387.492188 Z M 103.597656 354.113281 C 231.332031 354.113281 359.070312 354.113281 486.808594 354.113281 C 486.808594 360.269531 486.808594 366.105469 486.808594 372.261719 C 359.070312 372.261719 231.332031 372.261719 103.597656 372.261719 C 103.597656 366.105469 103.597656 360.269531 103.597656 354.113281 Z M 103.597656 320.730469 C 231.332031 320.730469 359.070312 320.730469 486.808594 320.730469 C 486.808594 326.890625 486.808594 333.050781 486.808594 338.878906 C 359.070312 338.878906 231.332031 338.878906 103.597656 338.878906 C 103.597656 333.050781 103.597656 326.890625 103.597656 320.730469 Z M 103.597656 287.675781 C 231.332031 287.675781 359.070312 287.675781 486.808594 287.675781 C 486.808594 293.507812 486.808594 299.664062 486.808594 305.820312 C 359.070312 305.820312 231.332031 305.820312 103.597656 305.820312 C 103.597656 299.664062 103.597656 293.507812 103.597656 287.675781 Z M 103.597656 254.292969 C 231.332031 254.292969 359.070312 254.292969 486.808594 254.292969 C 486.808594 260.449219 486.808594 266.609375 486.808594 272.441406 C 359.070312 272.441406 231.332031 272.441406 103.597656 272.441406 C 103.597656 266.609375 103.597656 260.449219 103.597656 254.292969 Z M 103.597656 221.234375 C 231.332031 221.234375 359.070312 221.234375 486.808594 221.234375 C 486.808594 227.070312 486.808594 233.230469 486.808594 239.382812 C 359.070312 239.382812 231.332031 239.382812 103.597656 239.382812 C 103.597656 233.230469 103.597656 227.070312 103.597656 221.234375 Z M 103.597656 187.851562 C 231.332031 187.851562 359.070312 187.851562 486.808594 187.851562 C 486.808594 194.011719 486.808594 199.847656 486.808594 206.003906 C 359.070312 206.003906 231.332031 206.003906 103.597656 206.003906 C 103.597656 199.847656 103.597656 194.011719 103.597656 187.851562 Z M 103.597656 154.46875 C 231.332031 154.46875 359.070312 154.46875 486.808594 154.46875 C 486.808594 160.628906 486.808594 166.789062 486.808594 172.621094 C 359.070312 172.621094 231.332031 172.621094 103.597656 172.621094 C 103.597656 166.789062 103.597656 160.628906 103.597656 154.46875 Z M 103.597656 88.035156 L 486.808594 88.035156 L 486.808594 106.183594 L 103.597656 106.183594 Z M 103.597656 121.417969 C 231.332031 121.417969 359.070312 121.417969 486.808594 121.417969 C 486.808594 127.246094 486.808594 133.40625 486.808594 139.5625 C 359.070312 139.5625 231.332031 139.5625 103.597656 139.5625 C 103.597656 133.40625 103.597656 127.246094 103.597656 121.417969 " fill-opacity="1" fill-rule="evenodd"/><g clip-path="url(#id5)"><path fill="#ffffff" d="M 426.179688 742.050781 L 426.179688 582.277344 L 586.015625 582.277344 L 426.179688 742.050781 " fill-opacity="1" fill-rule="evenodd"/></g></svg>