<svg xmlns="http://www.w3.org/2000/svg" xmlns:xlink="http://www.w3.org/1999/xlink" width="793" zoomAndPan="magnify" viewBox="0 0 594.95996 842.24997" height="1122" preserveAspectRatio="xMidYMid meet" version="1.0"><defs><clipPath id="id1"><path d="M 0.246094 0 L 594.675781 0 L 594.675781 841 L 0.246094 841 Z M 0.246094 0 " clip-rule="nonzero"/></clipPath><clipPath id="id2"><path d="M 0.246094 0 L 594.675781 0 L 594.675781 840.792969 L 0.246094 840.792969 Z M 0.246094 0 " clip-rule="nonzero"/></clipPath><clipPath id="id3"><path d="M 0.246094 0 L 594.675781 0 L 594.675781 770.414062 L 0.246094 770.414062 Z M 0.246094 0 " clip-rule="nonzero"/></clipPath><clipPath id="id4"><path d="M 452 0 L 594.675781 0 L 594.675781 143 L 452 143 Z M 452 0 " clip-rule="nonzero"/></clipPath></defs><g clip-path="url(#id1)"><path fill="#ffffff" d="M 0.246094 0 L 594.714844 0 L 594.714844 840.792969 L 0.246094 840.792969 Z M 0.246094 0 " fill-opacity="1" fill-rule="nonzero"/></g><g clip-path="url(#id2)"><path fill="#ffffff" d="M 0.246094 0 L 594.714844 0 L 594.714844 840.792969 L 0.246094 840.792969 Z M 0.246094 0 " fill-opacity="1" fill-rule="nonzero"/><path fill="#ffffff" d="M 0.246094 0 L 594.714844 0 L 594.714844 840.792969 L 0.246094 840.792969 Z M 0.246094 0 " fill-opacity="1" fill-rule="nonzero"/></g><g clip-path="url(#id3)"><path fill="#ebf0f3" d="M 452.488281 0.59375 L 0.328125 0.59375 C 0.261719 0.59375 0.207031 0.636719 0.207031 0.699219 L 0.207031 769.992188 C 0.207031 770.054688 0.261719 770.097656 0.328125 770.097656 L 594.632812 770.097656 C 594.699219 770.097656 594.75 770.054688 594.75 769.992188 L 594.75 142.773438 Z M 452.488281 0.59375 " fill-opacity="1" fill-rule="nonzero"/></g><g clip-path="url(#id4)"><path fill="#d5d6db" d="M 452.488281 142.773438 L 594.75 142.773438 L 452.488281 0.59375 Z M 452.488281 142.773438 " fill-opacity="1" fill-rule="nonzero"/></g><path fill="#d5d6db" d="M 516.132812 432.574219 L 78.828125 432.574219 C 74.695312 432.574219 71.339844 429.21875 71.339844 425.089844 C 71.339844 420.949219 74.695312 417.59375 78.828125 417.59375 L 516.132812 417.59375 C 520.265625 417.59375 523.621094 420.949219 523.621094 425.089844 C 523.621094 429.21875 520.265625 432.574219 516.132812 432.574219 Z M 516.132812 432.574219 " fill-opacity="1" fill-rule="nonzero"/><path fill="#d5d6db" d="M 516.132812 512.125 L 78.828125 512.125 C 74.695312 512.125 71.339844 508.773438 71.339844 504.640625 C 71.339844 500.5 74.695312 497.144531 78.828125 497.144531 L 516.132812 497.144531 C 520.265625 497.144531 523.621094 500.5 523.621094 504.640625 C 523.621094 508.773438 520.265625 512.125 516.132812 512.125 Z M 516.132812 512.125 " fill-opacity="1" fill-rule="nonzero"/><path fill="#d5d6db" d="M 516.132812 591.679688 L 78.828125 591.679688 C 74.695312 591.679688 71.339844 588.324219 71.339844 584.195312 C 71.339844 580.050781 74.695312 576.707031 78.828125 576.707031 L 516.132812 576.707031 C 520.265625 576.707031 523.621094 580.050781 523.621094 584.195312 C 523.621094 588.324219 520.265625 591.679688 516.132812 591.679688 Z M 516.132812 591.679688 " fill-opacity="1" fill-rule="nonzero"/><path fill="#d5d6db" d="M 516.132812 671.230469 L 78.828125 671.230469 C 74.695312 671.230469 71.339844 667.875 71.339844 663.746094 C 71.339844 659.613281 74.695312 656.261719 78.828125 656.261719 L 516.132812 656.261719 C 520.265625 656.261719 523.621094 659.613281 523.621094 663.746094 C 523.621094 667.875 520.265625 671.230469 516.132812 671.230469 Z M 516.132812 671.230469 " fill-opacity="1" fill-rule="nonzero"/><path fill="#d6b250" d="M 277.453125 367.367188 L 277.453125 339.691406 C 263.609375 337.945312 252.351562 334.847656 243.6875 330.382812 C 235.023438 325.929688 227.535156 318.726562 221.222656 308.78125 C 214.921875 298.835938 211.25 286.691406 210.226562 272.347656 L 238.066406 267.117188 C 240.226562 281.980469 244.023438 292.894531 249.449219 299.871094 C 257.242188 309.707031 266.574219 315.1875 277.453125 316.320312 L 277.453125 228.226562 C 266.066406 226.070312 254.425781 221.65625 242.535156 215.003906 C 233.707031 210.074219 226.917969 203.257812 222.148438 194.554688 C 217.378906 185.839844 214.996094 175.949219 214.996094 164.875 C 214.996094 145.199219 221.96875 129.261719 235.917969 117.0625 C 245.253906 108.867188 259.097656 103.839844 277.453125 101.996094 L 277.453125 88.773438 L 293.757812 88.773438 L 293.757812 101.996094 C 309.855469 103.539062 322.621094 108.25 332.054688 116.132812 C 344.160156 126.1875 351.433594 139.96875 353.90625 157.496094 L 325.289062 161.800781 C 323.648438 150.9375 320.238281 142.613281 315.058594 136.820312 C 309.878906 131.027344 302.777344 127.210938 293.757812 125.367188 L 293.757812 205.15625 C 307.699219 208.640625 316.933594 211.359375 321.445312 213.308594 C 330.058594 217.09375 337.082031 221.710938 342.519531 227.148438 C 347.949219 232.574219 352.132812 239.03125 355.046875 246.519531 C 357.972656 254.003906 359.441406 262.089844 359.441406 270.804688 C 359.441406 289.972656 353.332031 305.964844 341.128906 318.777344 C 328.925781 331.59375 313.136719 338.460938 293.757812 339.378906 L 293.757812 367.367188 Z M 277.453125 125.054688 C 266.683594 126.695312 258.191406 130.996094 251.988281 137.976562 C 245.78125 144.941406 242.683594 153.191406 242.683594 162.726562 C 242.683594 172.152344 245.328125 180.046875 250.605469 186.402344 C 255.894531 192.753906 264.839844 197.832031 277.453125 201.617188 Z M 293.757812 316.320312 C 304.527344 314.984375 313.417969 310.324219 320.441406 302.332031 C 327.46875 294.328125 330.972656 284.4375 330.972656 272.652344 C 330.972656 262.609375 328.492188 254.542969 323.519531 248.4375 C 318.542969 242.34375 308.625 236.886719 293.757812 232.066406 Z M 293.757812 316.320312 " fill-opacity="1" fill-rule="nonzero"/></svg>