<svg xmlns="http://www.w3.org/2000/svg" xmlns:xlink="http://www.w3.org/1999/xlink" width="793" zoomAndPan="magnify" viewBox="0 0 594.95996 842.24997" height="1122" preserveAspectRatio="xMidYMid meet" version="1.0"><defs><clipPath id="id1"><path d="M 0.246094 0 L 594.675781 0 L 594.675781 841 L 0.246094 841 Z M 0.246094 0 " clip-rule="nonzero"/></clipPath><clipPath id="id2"><path d="M 0.246094 0 L 594.675781 0 L 594.675781 840.792969 L 0.246094 840.792969 Z M 0.246094 0 " clip-rule="nonzero"/></clipPath><clipPath id="id3"><path d="M 0.246094 0 L 594.675781 0 L 594.675781 746.457031 L 0.246094 746.457031 Z M 0.246094 0 " clip-rule="nonzero"/></clipPath></defs><g clip-path="url(#id1)"><path fill="#ffffff" d="M 0.246094 0 L 594.714844 0 L 594.714844 840.792969 L 0.246094 840.792969 Z M 0.246094 0 " fill-opacity="1" fill-rule="nonzero"/></g><g clip-path="url(#id2)"><path fill="#ffffff" d="M 0.246094 0 L 594.714844 0 L 594.714844 840.792969 L 0.246094 840.792969 Z M 0.246094 0 " fill-opacity="1" fill-rule="nonzero"/><path fill="#ffffff" d="M 0.246094 0 L 594.714844 0 L 594.714844 840.792969 L 0.246094 840.792969 Z M 0.246094 0 " fill-opacity="1" fill-rule="nonzero"/></g><g clip-path="url(#id3)"><path fill="#f2f2f2" d="M 578.027344 746.414062 L 16.890625 746.414062 C 8.054688 746.414062 0.886719 739.25 0.886719 730.410156 L 0.886719 16.007812 C 0.886719 7.171875 8.054688 0.0078125 16.890625 0.0078125 L 578.027344 0.0078125 C 586.867188 0.0078125 594.039062 7.171875 594.039062 16.007812 L 594.039062 730.410156 C 594.039062 739.25 586.867188 746.414062 578.027344 746.414062 " fill-opacity="1" fill-rule="nonzero"/></g><path fill="#000000" d="M 559.800781 18.367188 L 35.125 18.367188 C 26.285156 18.367188 19.121094 25.53125 19.121094 34.367188 L 19.121094 712.054688 C 19.121094 720.890625 26.285156 728.054688 35.125 728.054688 L 559.800781 728.054688 C 568.636719 728.054688 575.804688 720.890625 575.804688 712.054688 L 575.804688 34.367188 C 575.804688 25.53125 568.636719 18.367188 559.800781 18.367188 Z M 559.800781 31.425781 C 561.421875 31.425781 562.742188 32.746094 562.742188 34.367188 L 562.742188 712.054688 C 562.742188 713.675781 561.421875 714.996094 559.800781 714.996094 L 35.125 714.996094 C 33.503906 714.996094 32.183594 713.675781 32.183594 712.054688 L 32.183594 34.367188 C 32.183594 32.746094 33.503906 31.425781 35.125 31.425781 L 559.800781 31.425781 " fill-opacity="1" fill-rule="nonzero"/><path fill="#000000" d="M 81.34375 267.3125 C 81.34375 281.3125 85.214844 285.582031 89.882812 285.582031 C 94.546875 285.582031 98.679688 281.3125 98.679688 267.3125 C 98.679688 253.441406 94.546875 248.777344 89.882812 248.777344 C 85.214844 248.777344 81.34375 253.441406 81.34375 267.3125 Z M 114.953125 267.3125 C 114.953125 287.179688 104.28125 298.777344 89.882812 298.777344 C 75.476562 298.777344 64.804688 287.179688 64.804688 267.3125 C 64.804688 247.445312 75.476562 235.574219 89.882812 235.574219 C 104.28125 235.574219 114.953125 247.445312 114.953125 267.3125 Z M 104.421875 338.515625 L 99.707031 338.515625 C 96.753906 338.515625 94.847656 335.378906 96.214844 332.761719 L 145.726562 237.695312 C 146.402344 236.390625 147.75 235.574219 149.21875 235.574219 L 153.8125 235.574219 C 156.765625 235.574219 158.667969 238.710938 157.308594 241.335938 L 107.921875 336.394531 C 107.246094 337.699219 105.898438 338.515625 104.421875 338.515625 Z M 155.097656 307.179688 C 155.097656 321.050781 159.101562 325.449219 163.765625 325.449219 C 168.433594 325.449219 172.433594 321.050781 172.433594 307.179688 C 172.433594 293.3125 168.433594 288.511719 163.765625 288.511719 C 159.101562 288.511719 155.097656 293.3125 155.097656 307.179688 Z M 188.835938 307.179688 C 188.835938 327.046875 178.304688 338.515625 163.765625 338.515625 C 149.230469 338.515625 138.558594 327.046875 138.558594 307.179688 C 138.558594 287.3125 149.230469 275.449219 163.765625 275.449219 C 178.304688 275.449219 188.835938 287.3125 188.835938 307.179688 " fill-opacity="1" fill-rule="nonzero"/><path fill="#000000" d="M 193.105469 108.085938 L 170.441406 108.085938 C 168.523438 108.085938 166.96875 106.535156 166.96875 104.617188 L 166.96875 101.152344 C 166.96875 99.238281 168.523438 97.683594 170.441406 97.683594 L 235.117188 97.683594 C 237.035156 97.683594 238.585938 99.238281 238.585938 101.152344 L 238.585938 104.617188 C 238.585938 106.535156 237.035156 108.085938 235.117188 108.085938 L 212.449219 108.085938 C 210.535156 108.085938 208.980469 109.640625 208.980469 111.554688 L 208.980469 191.957031 C 208.980469 193.871094 207.425781 195.425781 205.511719 195.425781 L 200.046875 195.425781 C 198.128906 195.425781 196.574219 193.871094 196.574219 191.957031 L 196.574219 111.554688 C 196.574219 109.640625 195.023438 108.085938 193.105469 108.085938 " fill-opacity="1" fill-rule="nonzero"/><path fill="#000000" d="M 170.441406 99.136719 C 169.328125 99.136719 168.421875 100.042969 168.421875 101.152344 L 168.421875 104.617188 C 168.421875 105.726562 169.328125 106.636719 170.441406 106.636719 L 193.105469 106.636719 C 195.820312 106.636719 198.027344 108.839844 198.027344 111.554688 L 198.027344 191.957031 C 198.027344 193.066406 198.933594 193.976562 200.046875 193.976562 L 205.511719 193.976562 C 206.621094 193.976562 207.53125 193.066406 207.53125 191.957031 L 207.53125 111.554688 C 207.53125 108.839844 209.734375 106.636719 212.449219 106.636719 L 235.117188 106.636719 C 236.230469 106.636719 237.136719 105.726562 237.136719 104.617188 L 237.136719 101.152344 C 237.136719 100.042969 236.230469 99.136719 235.117188 99.136719 Z M 205.511719 196.878906 L 200.046875 196.878906 C 197.335938 196.878906 195.125 194.667969 195.125 191.957031 L 195.125 111.554688 C 195.125 110.4375 194.222656 109.539062 193.105469 109.539062 L 170.441406 109.539062 C 167.722656 109.539062 165.519531 107.332031 165.519531 104.617188 L 165.519531 101.152344 C 165.519531 98.445312 167.722656 96.234375 170.441406 96.234375 L 235.117188 96.234375 C 237.832031 96.234375 240.039062 98.445312 240.039062 101.152344 L 240.039062 104.617188 C 240.039062 107.332031 237.832031 109.539062 235.117188 109.539062 L 212.449219 109.539062 C 211.332031 109.539062 210.433594 110.4375 210.433594 111.554688 L 210.433594 191.957031 C 210.433594 194.667969 208.226562 196.878906 205.511719 196.878906 " fill-opacity="1" fill-rule="nonzero"/><path fill="#000000" d="M 297.75 155.691406 C 300.089844 155.691406 301.757812 153.417969 301.058594 151.1875 L 297.800781 140.753906 C 294.199219 129.6875 291.132812 119.019531 287.929688 107.683594 L 287.394531 107.683594 C 284.328125 119.152344 281.125 129.6875 277.660156 140.753906 L 274.316406 151.160156 C 273.597656 153.398438 275.261719 155.691406 277.617188 155.691406 Z M 302.980469 165.558594 L 272.332031 165.558594 C 270.820312 165.558594 269.480469 166.535156 269.019531 167.980469 L 261.089844 193.003906 C 260.636719 194.445312 259.292969 195.425781 257.785156 195.425781 L 252.625 195.425781 C 250.25 195.425781 248.578125 193.089844 249.34375 190.839844 L 280.195312 100.039062 C 280.671875 98.632812 281.992188 97.683594 283.476562 97.683594 L 292.242188 97.683594 C 293.730469 97.683594 295.050781 98.632812 295.53125 100.039062 L 326.378906 190.839844 C 327.144531 193.089844 325.472656 195.425781 323.097656 195.425781 L 317.421875 195.425781 C 315.902344 195.425781 314.558594 194.441406 314.109375 192.988281 L 306.292969 167.992188 C 305.839844 166.539062 304.5 165.558594 302.980469 165.558594 " fill-opacity="1" fill-rule="nonzero"/><path fill="#000000" d="M 287.683594 112.15625 C 284.8125 122.59375 281.84375 132.246094 279.042969 141.191406 L 275.699219 151.601562 C 275.496094 152.222656 275.601562 152.882812 275.988281 153.410156 C 276.367188 153.933594 276.964844 154.238281 277.617188 154.238281 L 297.75 154.238281 C 298.394531 154.238281 298.992188 153.9375 299.375 153.417969 C 299.753906 152.890625 299.863281 152.238281 299.671875 151.621094 L 296.410156 141.191406 C 293.179688 131.246094 290.328125 121.457031 287.683594 112.15625 Z M 297.75 157.140625 L 277.617188 157.140625 C 276.027344 157.140625 274.578125 156.402344 273.640625 155.117188 C 272.707031 153.835938 272.445312 152.226562 272.933594 150.714844 L 276.277344 140.3125 C 279.429688 130.25 282.792969 119.277344 285.996094 107.308594 L 286.277344 106.234375 L 289.027344 106.234375 L 289.324219 107.292969 C 292.285156 117.761719 295.480469 128.941406 299.175781 140.304688 L 302.441406 150.753906 C 302.914062 152.265625 302.648438 153.859375 301.710938 155.132812 C 300.777344 156.410156 299.332031 157.140625 297.75 157.140625 Z M 272.332031 164.109375 L 302.980469 164.109375 C 305.148438 164.109375 307.035156 165.492188 307.683594 167.554688 L 315.496094 192.558594 C 315.761719 193.402344 316.53125 193.976562 317.421875 193.976562 L 323.097656 193.976562 C 323.753906 193.976562 324.355469 193.667969 324.734375 193.128906 C 325.121094 192.597656 325.21875 191.933594 325.007812 191.3125 L 294.152344 100.503906 C 293.875 99.6875 293.109375 99.136719 292.242188 99.136719 L 283.476562 99.136719 C 282.617188 99.136719 281.84375 99.6875 281.566406 100.503906 L 250.71875 191.3125 C 250.503906 191.933594 250.605469 192.597656 250.988281 193.128906 C 251.371094 193.667969 251.96875 193.976562 252.625 193.976562 L 257.785156 193.976562 C 258.667969 193.976562 259.441406 193.40625 259.707031 192.5625 L 267.636719 167.535156 C 268.289062 165.484375 270.179688 164.109375 272.332031 164.109375 Z M 323.097656 196.878906 L 317.421875 196.878906 C 315.257812 196.878906 313.367188 195.488281 312.722656 193.425781 L 304.910156 168.421875 C 304.644531 167.578125 303.871094 167.011719 302.980469 167.011719 L 272.332031 167.011719 C 271.449219 167.011719 270.675781 167.570312 270.410156 168.414062 L 262.472656 193.441406 C 261.820312 195.492188 259.9375 196.878906 257.785156 196.878906 L 252.625 196.878906 C 251.019531 196.878906 249.5625 196.128906 248.628906 194.820312 C 247.691406 193.515625 247.453125 191.894531 247.96875 190.375 L 278.816406 99.574219 C 279.5 97.570312 281.371094 96.234375 283.476562 96.234375 L 292.242188 96.234375 C 294.351562 96.234375 296.222656 97.570312 296.902344 99.566406 L 327.757812 190.375 C 328.273438 191.894531 328.035156 193.515625 327.101562 194.820312 C 326.164062 196.125 324.703125 196.878906 323.097656 196.878906 " fill-opacity="1" fill-rule="nonzero"/><path fill="#000000" d="M 369.378906 143.183594 L 346.589844 102.859375 C 345.289062 100.546875 346.960938 97.683594 349.613281 97.683594 L 355.191406 97.683594 C 356.472656 97.683594 357.652344 98.386719 358.253906 99.515625 L 370.609375 122.621094 C 373.140625 127.15625 375.144531 131.289062 378.347656 136.886719 L 378.878906 136.886719 C 381.542969 131.289062 383.414062 127.15625 385.8125 122.621094 L 397.914062 99.542969 C 398.507812 98.398438 399.691406 97.683594 400.980469 97.683594 L 405.917969 97.683594 C 408.566406 97.683594 410.238281 100.53125 408.945312 102.835938 L 386.101562 143.84375 C 385.507812 144.902344 385.519531 146.199219 386.121094 147.253906 L 410.714844 190.234375 C 412.039062 192.546875 410.375 195.425781 407.710938 195.425781 L 402.140625 195.425781 C 400.878906 195.425781 399.703125 194.730469 399.097656 193.617188 L 385.675781 169.023438 C 383.148438 164.222656 380.476562 159.152344 377.28125 153.285156 L 376.746094 153.285156 C 373.941406 159.152344 371.40625 164.222656 368.878906 169.023438 L 355.71875 193.59375 C 355.117188 194.722656 353.9375 195.425781 352.664062 195.425781 L 347.742188 195.425781 C 345.089844 195.425781 343.421875 192.5625 344.726562 190.25 L 369.382812 146.59375 C 369.976562 145.53125 369.976562 144.238281 369.378906 143.183594 " fill-opacity="1" fill-rule="nonzero"/><path fill="#000000" d="M 375.828125 151.835938 L 378.140625 151.835938 L 378.550781 152.59375 C 381.539062 158.070312 384.03125 162.792969 386.441406 167.363281 L 386.964844 168.347656 L 400.371094 192.921875 C 400.722656 193.574219 401.40625 193.976562 402.140625 193.976562 L 407.710938 193.976562 C 408.433594 193.976562 409.085938 193.59375 409.449219 192.972656 C 409.816406 192.34375 409.816406 191.582031 409.457031 190.953125 L 384.859375 147.976562 C 384.011719 146.484375 384 144.636719 384.832031 143.140625 L 407.679688 102.132812 C 408.039062 101.492188 408.027344 100.761719 407.65625 100.132812 C 407.285156 99.5 406.648438 99.136719 405.917969 99.136719 L 400.980469 99.136719 C 400.230469 99.136719 399.546875 99.550781 399.195312 100.21875 L 387.101562 123.292969 C 385.285156 126.71875 383.753906 129.960938 381.988281 133.714844 C 381.417969 134.914062 380.828125 136.171875 380.1875 137.511719 L 379.792969 138.339844 L 377.5 138.339844 L 377.089844 137.609375 C 375.25 134.398438 373.824219 131.695312 372.4375 129.078125 C 371.414062 127.136719 370.425781 125.265625 369.34375 123.328125 L 356.972656 100.203125 C 356.621094 99.542969 355.941406 99.136719 355.191406 99.136719 L 349.613281 99.136719 C 348.875 99.136719 348.242188 99.5 347.871094 100.140625 C 347.5 100.773438 347.492188 101.503906 347.855469 102.144531 L 370.648438 142.472656 C 371.488281 143.960938 371.488281 145.816406 370.640625 147.304688 L 345.992188 190.964844 C 345.628906 191.605469 345.632812 192.335938 346.003906 192.976562 C 346.375 193.613281 347.011719 193.976562 347.742188 193.976562 L 352.664062 193.976562 C 353.40625 193.976562 354.085938 193.566406 354.4375 192.910156 L 367.597656 168.335938 C 370.132812 163.53125 372.625 158.550781 375.433594 152.664062 Z M 407.710938 196.878906 L 402.140625 196.878906 C 400.34375 196.878906 398.6875 195.890625 397.820312 194.316406 L 383.878906 168.714844 C 381.765625 164.714844 379.589844 160.59375 377.078125 155.957031 C 374.640625 161.007812 372.421875 165.417969 370.160156 169.695312 L 357 194.28125 C 356.140625 195.878906 354.476562 196.878906 352.664062 196.878906 L 347.742188 196.878906 C 345.972656 196.878906 344.386719 195.964844 343.496094 194.433594 C 342.605469 192.910156 342.589844 191.078125 343.460938 189.535156 L 368.117188 145.878906 C 368.464844 145.269531 368.464844 144.507812 368.113281 143.894531 L 345.332031 103.574219 C 344.460938 102.03125 344.472656 100.203125 345.367188 98.671875 C 346.257812 97.144531 347.84375 96.234375 349.613281 96.234375 L 355.191406 96.234375 C 357.011719 96.234375 358.679688 97.230469 359.535156 98.835938 L 371.890625 121.933594 C 372.972656 123.871094 373.96875 125.761719 375.007812 127.726562 C 376.089844 129.78125 377.207031 131.886719 378.523438 134.253906 C 378.8125 133.644531 379.089844 133.054688 379.363281 132.476562 C 381.148438 128.691406 382.691406 125.421875 384.53125 121.941406 L 396.625 98.871094 C 397.476562 97.242188 399.148438 96.234375 400.980469 96.234375 L 405.917969 96.234375 C 407.679688 96.234375 409.261719 97.140625 410.160156 98.660156 C 411.054688 100.179688 411.070312 102.011719 410.214844 103.546875 L 387.367188 144.550781 C 387.027344 145.164062 387.03125 145.921875 387.378906 146.535156 L 411.976562 189.511719 C 412.855469 191.054688 412.851562 192.890625 411.960938 194.421875 C 411.070312 195.957031 409.476562 196.878906 407.710938 196.878906 " fill-opacity="1" fill-rule="nonzero"/><path fill="#000000" d="M 522.527344 659.304688 L 89.167969 659.304688 C 85.5625 659.304688 82.636719 656.378906 82.636719 652.773438 C 82.636719 649.167969 85.5625 646.242188 89.167969 646.242188 L 522.527344 646.242188 C 526.132812 646.242188 529.058594 649.167969 529.058594 652.773438 C 529.058594 656.378906 526.132812 659.304688 522.527344 659.304688 " fill-opacity="1" fill-rule="nonzero"/><path fill="#000000" d="M 522.527344 590.488281 L 89.167969 590.488281 C 85.5625 590.488281 82.636719 587.5625 82.636719 583.957031 C 82.636719 580.351562 85.5625 577.429688 89.167969 577.429688 L 522.527344 577.429688 C 526.132812 577.429688 529.058594 580.351562 529.058594 583.957031 C 529.058594 587.5625 526.132812 590.488281 522.527344 590.488281 " fill-opacity="1" fill-rule="nonzero"/><path fill="#000000" d="M 522.527344 521.671875 L 89.167969 521.671875 C 85.5625 521.671875 82.636719 518.75 82.636719 515.144531 C 82.636719 511.539062 85.5625 508.613281 89.167969 508.613281 L 522.527344 508.613281 C 526.132812 508.613281 529.058594 511.539062 529.058594 515.144531 C 529.058594 518.75 526.132812 521.671875 522.527344 521.671875 " fill-opacity="1" fill-rule="nonzero"/><path fill="#000000" d="M 522.527344 452.851562 L 89.167969 452.851562 C 85.5625 452.851562 82.636719 449.933594 82.636719 446.324219 C 82.636719 442.71875 85.5625 439.792969 89.167969 439.792969 L 522.527344 439.792969 C 526.132812 439.792969 529.058594 442.71875 529.058594 446.324219 C 529.058594 449.933594 526.132812 452.851562 522.527344 452.851562 " fill-opacity="1" fill-rule="nonzero"/><path fill="#000000" d="M 522.527344 384.039062 L 145.78125 384.039062 C 142.175781 384.039062 139.25 381.113281 139.25 377.507812 C 139.25 373.902344 142.175781 370.976562 145.78125 370.976562 L 522.527344 370.976562 C 526.132812 370.976562 529.058594 373.902344 529.058594 377.507812 C 529.058594 381.113281 526.132812 384.039062 522.527344 384.039062 " fill-opacity="1" fill-rule="nonzero"/><path fill="#000000" d="M 522.527344 315.222656 L 231.347656 315.222656 C 227.742188 315.222656 224.816406 312.296875 224.816406 308.691406 C 224.816406 305.082031 227.742188 302.164062 231.347656 302.164062 L 522.527344 302.164062 C 526.132812 302.164062 529.058594 305.082031 529.058594 308.691406 C 529.058594 312.296875 526.132812 315.222656 522.527344 315.222656 " fill-opacity="1" fill-rule="nonzero"/><path fill="#000000" d="M 522.527344 246.402344 L 231.347656 246.402344 C 227.742188 246.402344 224.816406 243.476562 224.816406 239.871094 C 224.816406 236.265625 227.742188 233.34375 231.347656 233.34375 L 522.527344 233.34375 C 526.132812 233.34375 529.058594 236.265625 529.058594 239.871094 C 529.058594 243.476562 526.132812 246.402344 522.527344 246.402344 " fill-opacity="1" fill-rule="nonzero"/></svg>