<svg xmlns="http://www.w3.org/2000/svg" xmlns:xlink="http://www.w3.org/1999/xlink" width="793" zoomAndPan="magnify" viewBox="0 0 594.95996 842.24997" height="1122" preserveAspectRatio="xMidYMid meet" version="1.0"><defs><clipPath id="id1"><path d="M 0.246094 0 L 594.675781 0 L 594.675781 841 L 0.246094 841 Z M 0.246094 0 " clip-rule="nonzero"/></clipPath><clipPath id="id2"><path d="M 0.246094 0 L 594.675781 0 L 594.675781 840.792969 L 0.246094 840.792969 Z M 0.246094 0 " clip-rule="nonzero"/></clipPath><clipPath id="id3"><path d="M 0.246094 0 L 594.675781 0 L 594.675781 720.253906 L 0.246094 720.253906 Z M 0.246094 0 " clip-rule="nonzero"/></clipPath></defs><g clip-path="url(#id1)"><path fill="#ffffff" d="M 0.246094 0 L 594.714844 0 L 594.714844 840.792969 L 0.246094 840.792969 Z M 0.246094 0 " fill-opacity="1" fill-rule="nonzero"/></g><g clip-path="url(#id2)"><path fill="#ffffff" d="M 0.246094 0 L 594.714844 0 L 594.714844 840.792969 L 0.246094 840.792969 Z M 0.246094 0 " fill-opacity="1" fill-rule="nonzero"/><path fill="#ffffff" d="M 0.246094 0 L 594.714844 0 L 594.714844 840.792969 L 0.246094 840.792969 Z M 0.246094 0 " fill-opacity="1" fill-rule="nonzero"/></g><path fill="#ffffff" d="M 478.109375 11.601562 L 11.675781 11.601562 L 11.675781 708.652344 L 583.28125 708.652344 L 583.28125 116.160156 Z M 478.109375 11.601562 " fill-opacity="1" fill-rule="nonzero"/><g clip-path="url(#id3)"><path fill="#37474f" d="M 583.28125 720.078125 L 11.675781 720.078125 C 5.390625 720.078125 0.246094 714.9375 0.246094 708.652344 L 0.246094 11.601562 C 0.246094 5.316406 5.390625 0.171875 11.675781 0.171875 L 478.109375 0.171875 C 480.964844 0.171875 483.824219 1.316406 486.109375 3.601562 L 591.285156 108.160156 C 593.570312 110.445312 594.714844 113.300781 594.714844 116.160156 L 594.714844 708.652344 C 594.714844 714.9375 589.570312 720.078125 583.28125 720.078125 Z M 23.109375 697.226562 L 571.851562 697.226562 L 571.851562 121.300781 L 473.535156 23.027344 L 23.109375 23.027344 Z M 23.109375 697.226562 " fill-opacity="1" fill-rule="nonzero"/></g><path fill="#ffecb3" d="M 577.566406 137.296875 L 463.246094 137.296875 L 463.246094 23.027344 " fill-opacity="1" fill-rule="nonzero"/><path fill="#37474f" d="M 577.566406 148.726562 L 463.246094 148.726562 C 456.957031 148.726562 451.8125 143.582031 451.8125 137.296875 L 451.8125 23.027344 C 451.8125 16.742188 456.957031 11.601562 463.246094 11.601562 C 469.535156 11.601562 474.679688 16.742188 474.679688 23.027344 L 474.679688 125.871094 L 577.566406 125.871094 C 583.855469 125.871094 589 131.011719 589 137.296875 C 589 143.582031 583.855469 148.726562 577.566406 148.726562 Z M 577.566406 148.726562 " fill-opacity="1" fill-rule="nonzero"/><path fill="#ffab00" d="M 226.601562 153.867188 C 226.601562 155.066406 226.570312 156.261719 226.511719 157.457031 C 226.453125 158.652344 226.367188 159.84375 226.25 161.035156 C 226.132812 162.226562 225.984375 163.414062 225.808594 164.597656 C 225.632812 165.78125 225.429688 166.960938 225.195312 168.136719 C 224.960938 169.308594 224.699219 170.476562 224.40625 171.636719 C 224.117188 172.796875 223.796875 173.953125 223.449219 175.097656 C 223.101562 176.242188 222.726562 177.378906 222.324219 178.503906 C 221.921875 179.632812 221.488281 180.75 221.03125 181.855469 C 220.574219 182.960938 220.089844 184.054688 219.574219 185.136719 C 219.0625 186.21875 218.527344 187.285156 217.960938 188.34375 C 217.398438 189.398438 216.808594 190.4375 216.191406 191.464844 C 215.574219 192.492188 214.933594 193.503906 214.269531 194.5 C 213.605469 195.492188 212.914062 196.472656 212.203125 197.433594 C 211.488281 198.394531 210.753906 199.335938 209.992188 200.261719 C 209.234375 201.1875 208.453125 202.09375 207.648438 202.980469 C 206.84375 203.867188 206.019531 204.734375 205.171875 205.582031 C 204.324219 206.425781 203.457031 207.253906 202.570312 208.054688 C 201.683594 208.859375 200.777344 209.640625 199.851562 210.402344 C 198.925781 211.160156 197.980469 211.894531 197.019531 212.609375 C 196.058594 213.320312 195.078125 214.011719 194.082031 214.675781 C 193.089844 215.339844 192.078125 215.980469 191.050781 216.597656 C 190.023438 217.210938 188.980469 217.800781 187.925781 218.367188 C 186.871094 218.929688 185.800781 219.46875 184.71875 219.980469 C 183.636719 220.492188 182.539062 220.976562 181.433594 221.433594 C 180.328125 221.890625 179.210938 222.324219 178.082031 222.726562 C 176.957031 223.128906 175.820312 223.503906 174.675781 223.851562 C 173.527344 224.199219 172.375 224.519531 171.214844 224.808594 C 170.050781 225.101562 168.882812 225.363281 167.710938 225.597656 C 166.535156 225.828125 165.355469 226.035156 164.171875 226.210938 C 162.988281 226.386719 161.796875 226.53125 160.605469 226.648438 C 159.414062 226.765625 158.222656 226.855469 157.023438 226.914062 C 155.828125 226.972656 154.632812 227 153.433594 227 C 152.238281 227 151.042969 226.972656 149.84375 226.914062 C 148.648438 226.855469 147.457031 226.765625 146.265625 226.648438 C 145.070312 226.53125 143.882812 226.386719 142.699219 226.210938 C 141.515625 226.035156 140.335938 225.828125 139.160156 225.597656 C 137.988281 225.363281 136.820312 225.101562 135.65625 224.808594 C 134.496094 224.519531 133.34375 224.199219 132.195312 223.851562 C 131.050781 223.503906 129.914062 223.128906 128.785156 222.726562 C 127.660156 222.324219 126.542969 221.890625 125.4375 221.433594 C 124.328125 220.976562 123.234375 220.492188 122.152344 219.980469 C 121.070312 219.46875 120 218.929688 118.945312 218.367188 C 117.890625 217.800781 116.847656 217.210938 115.820312 216.597656 C 114.792969 215.980469 113.78125 215.339844 112.785156 214.675781 C 111.789062 214.011719 110.8125 213.320312 109.851562 212.609375 C 108.886719 211.894531 107.945312 211.160156 107.019531 210.402344 C 106.09375 209.640625 105.1875 208.859375 104.300781 208.054688 C 103.414062 207.253906 102.546875 206.425781 101.699219 205.582031 C 100.851562 204.734375 100.027344 203.867188 99.222656 202.980469 C 98.417969 202.09375 97.636719 201.1875 96.878906 200.261719 C 96.117188 199.335938 95.382812 198.394531 94.667969 197.433594 C 93.953125 196.472656 93.265625 195.492188 92.601562 194.5 C 91.933594 193.503906 91.292969 192.492188 90.679688 191.464844 C 90.0625 190.4375 89.472656 189.398438 88.910156 188.34375 C 88.34375 187.285156 87.804688 186.21875 87.292969 185.136719 C 86.78125 184.054688 86.296875 182.960938 85.839844 181.855469 C 85.378906 180.75 84.949219 179.632812 84.546875 178.503906 C 84.144531 177.378906 83.769531 176.242188 83.421875 175.097656 C 83.074219 173.953125 82.753906 172.796875 82.460938 171.636719 C 82.171875 170.476562 81.910156 169.308594 81.675781 168.136719 C 81.441406 166.960938 81.238281 165.78125 81.0625 164.597656 C 80.886719 163.414062 80.738281 162.226562 80.621094 161.035156 C 80.503906 159.84375 80.417969 158.652344 80.359375 157.457031 C 80.300781 156.261719 80.269531 155.066406 80.269531 153.867188 C 80.269531 152.671875 80.300781 151.476562 80.359375 150.277344 C 80.417969 149.082031 80.503906 147.890625 80.621094 146.699219 C 80.738281 145.507812 80.886719 144.320312 81.0625 143.136719 C 81.238281 141.953125 81.441406 140.773438 81.675781 139.601562 C 81.910156 138.425781 82.171875 137.257812 82.460938 136.097656 C 82.753906 134.9375 83.074219 133.785156 83.421875 132.636719 C 83.769531 131.492188 84.144531 130.355469 84.546875 129.230469 C 84.949219 128.101562 85.378906 126.988281 85.839844 125.878906 C 86.296875 124.773438 86.78125 123.679688 87.292969 122.597656 C 87.804688 121.515625 88.34375 120.449219 88.910156 119.394531 C 89.472656 118.335938 90.0625 117.296875 90.679688 116.269531 C 91.292969 115.242188 91.933594 114.230469 92.601562 113.238281 C 93.265625 112.242188 93.953125 111.261719 94.667969 110.300781 C 95.382812 109.339844 96.117188 108.398438 96.878906 107.472656 C 97.636719 106.546875 98.417969 105.640625 99.222656 104.753906 C 100.027344 103.867188 100.851562 103 101.699219 102.15625 C 102.546875 101.308594 103.414062 100.484375 104.300781 99.679688 C 105.1875 98.875 106.09375 98.09375 107.019531 97.335938 C 107.945312 96.574219 108.886719 95.839844 109.851562 95.125 C 110.8125 94.414062 111.789062 93.726562 112.785156 93.058594 C 113.78125 92.394531 114.792969 91.753906 115.820312 91.140625 C 116.847656 90.523438 117.890625 89.933594 118.945312 89.371094 C 120 88.804688 121.070312 88.269531 122.152344 87.757812 C 123.234375 87.246094 124.328125 86.757812 125.4375 86.300781 C 126.542969 85.84375 127.660156 85.414062 128.785156 85.007812 C 129.914062 84.605469 131.050781 84.230469 132.195312 83.882812 C 133.34375 83.535156 134.496094 83.21875 135.65625 82.925781 C 136.820312 82.636719 137.988281 82.375 139.160156 82.140625 C 140.335938 81.90625 141.515625 81.703125 142.699219 81.527344 C 143.882812 81.351562 145.070312 81.203125 146.265625 81.085938 C 147.457031 80.96875 148.648438 80.882812 149.84375 80.824219 C 151.042969 80.765625 152.238281 80.734375 153.433594 80.734375 C 154.632812 80.734375 155.828125 80.765625 157.023438 80.824219 C 158.222656 80.882812 159.414062 80.96875 160.605469 81.085938 C 161.796875 81.203125 162.988281 81.351562 164.171875 81.527344 C 165.355469 81.703125 166.535156 81.90625 167.710938 82.140625 C 168.882812 82.375 170.050781 82.636719 171.214844 82.925781 C 172.375 83.21875 173.527344 83.535156 174.675781 83.882812 C 175.820312 84.230469 176.957031 84.605469 178.082031 85.007812 C 179.210938 85.414062 180.328125 85.84375 181.433594 86.300781 C 182.539062 86.757812 183.636719 87.246094 184.71875 87.757812 C 185.800781 88.269531 186.871094 88.804688 187.925781 89.371094 C 188.980469 89.933594 190.023438 90.523438 191.050781 91.140625 C 192.078125 91.753906 193.089844 92.394531 194.082031 93.058594 C 195.078125 93.726562 196.058594 94.414062 197.019531 95.125 C 197.980469 95.839844 198.925781 96.574219 199.851562 97.335938 C 200.777344 98.09375 201.683594 98.875 202.570312 99.679688 C 203.457031 100.484375 204.324219 101.308594 205.171875 102.15625 C 206.019531 103 206.84375 103.867188 207.648438 104.753906 C 208.453125 105.640625 209.234375 106.546875 209.992188 107.472656 C 210.753906 108.398438 211.488281 109.339844 212.203125 110.300781 C 212.914062 111.261719 213.605469 112.242188 214.269531 113.238281 C 214.933594 114.230469 215.574219 115.242188 216.191406 116.269531 C 216.808594 117.296875 217.398438 118.335938 217.960938 119.394531 C 218.527344 120.449219 219.0625 121.515625 219.574219 122.597656 C 220.089844 123.679688 220.574219 124.773438 221.03125 125.882812 C 221.488281 126.988281 221.921875 128.101562 222.324219 129.230469 C 222.726562 130.355469 223.101562 131.492188 223.449219 132.636719 C 223.796875 133.785156 224.117188 134.9375 224.40625 136.097656 C 224.699219 137.257812 224.960938 138.425781 225.195312 139.601562 C 225.429688 140.773438 225.632812 141.953125 225.808594 143.136719 C 225.984375 144.320312 226.132812 145.507812 226.25 146.699219 C 226.367188 147.890625 226.453125 149.082031 226.511719 150.277344 C 226.570312 151.476562 226.601562 152.671875 226.601562 153.867188 Z M 226.601562 153.867188 " fill-opacity="1" fill-rule="nonzero"/><path fill="#37474f" d="M 153.433594 238.429688 C 107.136719 238.429688 68.835938 200.71875 68.835938 153.867188 C 68.835938 107.015625 106.5625 69.308594 153.433594 69.308594 C 200.308594 69.308594 238.03125 107.015625 238.03125 153.867188 C 238.03125 200.71875 199.734375 238.429688 153.433594 238.429688 Z M 153.433594 92.734375 C 119.710938 92.734375 91.703125 120.15625 91.703125 153.867188 C 91.703125 187.578125 119.140625 215.574219 153.433594 215.574219 C 187.730469 215.574219 215.167969 188.148438 215.167969 153.867188 C 215.167969 119.585938 187.160156 92.734375 153.433594 92.734375 Z M 153.433594 92.734375 " fill-opacity="1" fill-rule="nonzero"/><path fill="#ffab00" d="M 108.851562 211.574219 L 108.851562 310.417969 L 152.863281 265.851562 " fill-opacity="1" fill-rule="nonzero"/><path fill="#37474f" d="M 108.851562 321.84375 C 107.136719 321.84375 105.992188 321.84375 104.277344 321.273438 C 99.703125 319.558594 97.417969 315.5625 97.417969 310.417969 L 97.417969 211.574219 C 97.417969 205.289062 102.5625 200.148438 108.851562 200.148438 C 115.136719 200.148438 120.28125 205.289062 120.28125 211.574219 L 120.28125 282.421875 L 144.289062 257.28125 C 148.863281 252.710938 155.722656 252.710938 160.292969 257.28125 C 164.867188 261.855469 164.867188 268.710938 160.292969 273.28125 L 116.28125 318.417969 C 114.566406 320.703125 111.707031 321.84375 108.851562 321.84375 Z M 108.851562 321.84375 " fill-opacity="1" fill-rule="nonzero"/><path fill="#ffab00" d="M 194.589844 217.289062 L 194.589844 310.417969 L 150.578125 265.851562 " fill-opacity="1" fill-rule="nonzero"/><path fill="#37474f" d="M 194.589844 321.84375 C 191.734375 321.84375 188.875 320.703125 186.589844 318.417969 L 142.574219 273.28125 C 138 268.710938 138 261.28125 142.574219 257.28125 C 147.148438 252.710938 154.578125 252.710938 158.578125 257.28125 L 182.585938 282.421875 L 182.585938 217.289062 C 182.585938 211.003906 187.730469 205.859375 194.019531 205.859375 C 200.308594 205.859375 205.453125 211.003906 205.453125 217.289062 L 205.453125 310.417969 C 205.453125 314.988281 202.59375 318.988281 198.59375 321.273438 C 197.449219 321.84375 196.304688 321.84375 194.589844 321.84375 Z M 194.589844 321.84375 " fill-opacity="1" fill-rule="nonzero"/><path fill="#37474f" d="M 497.542969 422.976562 L 97.417969 422.976562 C 91.128906 422.976562 85.984375 417.832031 85.984375 411.546875 C 85.984375 405.261719 91.128906 400.121094 97.417969 400.121094 L 497.542969 400.121094 C 503.828125 400.121094 508.972656 405.261719 508.972656 411.546875 C 508.972656 417.832031 503.828125 422.976562 497.542969 422.976562 Z M 497.542969 422.976562 " fill-opacity="1" fill-rule="nonzero"/><path fill="#37474f" d="M 497.542969 525.820312 L 97.417969 525.820312 C 91.128906 525.820312 85.984375 520.675781 85.984375 514.390625 C 85.984375 508.105469 91.128906 502.964844 97.417969 502.964844 L 497.542969 502.964844 C 503.828125 502.964844 508.972656 508.105469 508.972656 514.390625 C 508.972656 520.675781 503.828125 525.820312 497.542969 525.820312 Z M 497.542969 525.820312 " fill-opacity="1" fill-rule="nonzero"/><path fill="#37474f" d="M 497.542969 628.664062 L 97.417969 628.664062 C 91.128906 628.664062 85.984375 623.519531 85.984375 617.234375 C 85.984375 610.949219 91.128906 605.808594 97.417969 605.808594 L 497.542969 605.808594 C 503.828125 605.808594 508.972656 610.949219 508.972656 617.234375 C 508.972656 623.519531 503.828125 628.664062 497.542969 628.664062 Z M 497.542969 628.664062 " fill-opacity="1" fill-rule="nonzero"/><path fill="#37474f" d="M 497.542969 217.289062 L 274.617188 217.289062 C 268.328125 217.289062 263.183594 212.144531 263.183594 205.859375 C 263.183594 199.574219 268.328125 194.433594 274.617188 194.433594 L 497.542969 194.433594 C 503.828125 194.433594 508.972656 199.574219 508.972656 205.859375 C 508.972656 212.144531 503.828125 217.289062 497.542969 217.289062 Z M 497.542969 217.289062 " fill-opacity="1" fill-rule="nonzero"/><path fill="#37474f" d="M 497.542969 320.132812 L 274.617188 320.132812 C 268.328125 320.132812 263.183594 314.988281 263.183594 308.703125 C 263.183594 302.417969 268.328125 297.277344 274.617188 297.277344 L 497.542969 297.277344 C 503.828125 297.277344 508.972656 302.417969 508.972656 308.703125 C 508.972656 314.988281 503.828125 320.132812 497.542969 320.132812 Z M 497.542969 320.132812 " fill-opacity="1" fill-rule="nonzero"/></svg>